<svg xmlns="http://www.w3.org/2000/svg" width="300" height="300"><path d="M150 86c-1.824 0-3.616.481-5.195 1.393l-32.61 18.826a10.39 10.39 0 0 0-5.195 9v37.653c0 3.712 1.98 7.143 5.195 9l32.61 18.826a10.39 10.39 0 0 0 10.39 0l32.61-18.826a10.39 10.39 0 0 0 5.195-9v-37.653c0-3.712-1.98-7.143-5.195-9l-32.61-18.826A10.4 10.4 0 0 0 150 86" style="fill:#f0e2d1"/><path d="M149.398 89.6c-.398.07-.78.21-1.13.412l-31.536 18.207a1.155 1.155 0 0 0 0 2l31.536 18.206a3.46 3.46 0 0 0 3.464 0l31.536-18.207c.77-.445.77-1.556 0-2l-31.536-18.206a3.46 3.46 0 0 0-2.334-.412m-37.443 27.412a1.155 1.155 0 0 0-.955 1.137v36.414c0 1.237.66 2.38 1.732 3l31.536 18.207a1.155 1.155 0 0 0 1.732-1v-36.415c0-1.238-.66-2.382-1.732-3l-31.536-18.206a1.16 1.16 0 0 0-.777-.137m76.09 0a1.16 1.16 0 0 0-.777.137l-31.536 18.206a3.46 3.46 0 0 0-1.732 3v36.414c0 .889.963 1.444 1.732 1l31.536-18.207a3.46 3.46 0 0 0 1.732-3v-36.413c0-.561-.403-1.04-.955-1.137" style="fill:#4f433c"/><path d="m165.92 105.893-10.676 6.164 2.766 1.595 10.676-6.162zm-20.121 1.603-14.485 3.45 3.387 1.956 8.965-2.537-4.336 5.21 3.387 1.954 5.976-8.361zm-28.139 23.647v3.91l6.68 6.494-6.68-1.15v3.91l10.23.996v-3.342zm53.23 11.521-10.23.994v3.91l6.68-1.216-6.68 6.562v3.91l10.23-10.818zm11.45 3.402-10.676 6.164v3.194l10.676-6.164zm-53.676 6.354v3.193l10.676 6.164v-3.195zm-22.129 43.67v6.433c-.75-.856-1.734-1.347-2.988-1.347-3.176 0-4.969 2.623-4.969 6.478v.248c0 3.68 1.804 6.422 4.945 6.422 1.382 0 2.426-.586 3.2-1.57l.175 1.336h3.2v-18zm58.31 0v18h1.313l.07-1.746c.833 1.23 2.157 1.978 4.008 1.978 3.07 0 4.84-2.658 4.84-6.443v-.246c0-3.937-1.77-6.457-4.863-6.457-1.828 0-3.118.773-3.961 2.062v-7.148zm-49.859.234c-1.195 0-1.98.762-1.98 1.817s.785 1.816 1.98 1.816 1.97-.761 1.97-1.816-.775-1.817-1.97-1.817m18.295 1.955v3.131h-1.802v2.578h1.802v6.54c0 2.718 1.43 3.796 3.715 3.796.844 0 1.5-.116 2.086-.316l.014-2.672a5 5 0 0 1-.987.082c-.89 0-1.289-.257-1.289-1.29v-6.14l2.147-.002v-2.576h-2.147v-3.13zm-8.566 2.897c-3.2 0-5.098 1.851-5.098 3.972 0 2.203 1.933 3.317 4.5 3.868 2.074.445 2.555.844 2.555 1.535 0 .762-.644 1.277-1.863 1.277-1.207 0-2.191-.528-2.25-1.805h-3.354c0 2.062 1.936 4.3 5.522 4.3 3.28 0 5.388-1.662 5.388-3.901 0-2.566-2.107-3.48-4.814-4.008-1.7-.317-2.297-.726-2.297-1.441 0-.75.656-1.313 1.7-1.313 1.276 0 1.839.668 1.839 1.617h3.537c0-2.39-2.037-4.101-5.365-4.101m22.69 0c-1.23 0-2.168.656-2.79 1.746l-.117-1.512h-3.328v12.68h3.54v-8.217c.376-.808 1.17-1.228 2.46-1.228.364 0 .902.058 1.242.093l.049-3.41c-.247-.094-.706-.152-1.057-.152m8.415 0c-3.855 0-6.023 2.766-6.023 6.457v.246c0 3.692 2.168 6.445 6.047 6.445s6.023-2.753 6.023-6.445v-.246c0-3.691-2.144-6.457-6.047-6.457m27.625 0c-3.41 0-5.648 2.696-5.648 6.387v.386c0 3.691 2.239 6.375 5.672 6.375 3.422 0 5.648-2.684 5.648-6.375v-.387c0-3.69-2.227-6.386-5.672-6.386m-70.228.234v12.68h3.55v-12.68zm77.87 0 4.3 6.21-4.489 6.47h1.665l3.597-5.367 3.621 5.367h1.64l-4.476-6.469 4.301-6.21h-1.664l-3.432 5.132-3.41-5.133zm-7.642.95c2.754 0 4.266 2.472 4.266 5.202v.387c0 2.777-1.511 5.192-4.242 5.192-2.765 0-4.266-2.415-4.266-5.192h-.002v-.387c0-2.73 1.501-5.203 4.244-5.203m-13.502.035c2.625 0 3.715 2.285 3.715 5.238v.246c0 2.954-1.137 5.226-3.691 5.226-1.946 0-3.13-1.055-3.715-2.39v-5.742c.527-1.324 1.582-2.578 3.691-2.578m-14.123 1.626c1.864 0 2.508 1.667 2.508 3.612v.246c0 2.004-.656 3.598-2.484 3.598-1.852 0-2.496-1.594-2.496-3.598v-.246c0-1.945.644-3.612 2.472-3.612m-51.37.026c1.007 0 1.687.432 2.085 1.228v4.936c-.398.774-1.077 1.242-2.11 1.242-1.721 0-2.308-1.57-2.308-3.55v-.247c0-2.04.633-3.61 2.332-3.61" style="fill:#f0e2d1"/></svg>