<svg xmlns="http://www.w3.org/2000/svg" width="300" height="300"><path d="M150 53.908v.002a20.8 20.8 0 0 0-10.39 2.785L74.39 94.348a20.79 20.79 0 0 0-10.39 18v75.304c0 7.426 3.96 14.287 10.39 18l65.22 37.655a20.79 20.79 0 0 0 20.78 0l65.22-37.655a20.79 20.79 0 0 0 10.39-18v-75.304c0-7.426-3.96-14.287-10.39-18l-65.22-37.653A20.8 20.8 0 0 0 150 53.908m.004 7.096a6.93 6.93 0 0 1 3.46.93l63.071 36.414c1.539.889 1.539 3.11 0 4l-63.07 36.414a6.93 6.93 0 0 1-6.93 0l-63.07-36.414c-1.539-.89-1.539-3.111 0-4l63.07-36.414a6.94 6.94 0 0 1 3.469-.93m31.836 32.693-21.352 12.326 5.532 3.196 21.351-12.326zm-40.242 3.207-28.97 6.9 6.774 3.913 17.93-5.074-8.672 10.42 6.774 3.91 11.953-16.725zm-67.688 19.03a2.3 2.3 0 0 1 1.555.273l63.07 36.414a6.93 6.93 0 0 1 3.465 6v72.828c0 1.777-1.925 2.888-3.465 2l-63.07-36.414a6.93 6.93 0 0 1-3.465-6v-72.828a2.31 2.31 0 0 1 1.91-2.273m151.38 0a2.31 2.31 0 0 1 2.71 2.273v72.828a6.93 6.93 0 0 1-3.465 6l-63.07 36.414c-1.54.888-3.464-.223-3.465-2v-72.828a6.93 6.93 0 0 1 3.465-6l63.07-36.414c.235-.135.491-.227.754-.273m-139.97 28.26v7.82l13.362 12.99-13.362-2.3v7.82l20.461 1.99v-6.684zm106.461 23.044-20.46 1.989v7.822l13.36-2.438-13.36 13.127v7.82l20.46-21.636zm22.899 6.807-21.352 12.324v6.389l21.352-12.328zM107.328 186.75v6.387l21.352 12.328v-6.389z" style="fill:#000"/></svg>