<svg xmlns="http://www.w3.org/2000/svg" xml:space="preserve" width="400" height="200"><path d="M87 51.955c-1.824 0-3.616.481-5.195 1.393l-32.61 18.826a10.39 10.39 0 0 0-5.195 9v37.653c0 3.712 1.98 7.143 5.195 9l32.61 18.826a10.39 10.39 0 0 0 10.39 0l32.61-18.826a10.39 10.39 0 0 0 5.195-9V81.174c0-3.712-1.98-7.143-5.195-9l-32.61-18.826A10.4 10.4 0 0 0 87 51.955" style="fill:#f0e2d1"/><path d="M86.398 55.555c-.398.07-.78.21-1.13.412L53.732 74.174a1.155 1.155 0 0 0 0 2L85.268 94.38a3.46 3.46 0 0 0 3.464 0l31.536-18.207c.77-.445.77-1.556 0-2L88.732 55.967a3.46 3.46 0 0 0-2.334-.412M48.955 82.967A1.155 1.155 0 0 0 48 84.104v36.414c0 1.237.66 2.38 1.732 3l31.536 18.207a1.155 1.155 0 0 0 1.732-1V104.31c0-1.238-.66-2.382-1.732-3L49.732 83.104a1.16 1.16 0 0 0-.777-.137m76.09 0a1.16 1.16 0 0 0-.777.137L92.732 101.31a3.46 3.46 0 0 0-1.732 3v36.414c0 .889.963 1.444 1.732 1l31.536-18.207a3.46 3.46 0 0 0 1.732-3V84.104c0-.561-.403-1.04-.955-1.137" style="fill:#4f433c"/><path d="m102.92 71.85-10.676 6.162 2.766 1.597 10.676-6.164zm-20.121 1.6-14.485 3.451 3.387 1.955 8.965-2.537-4.336 5.211 3.387 1.955 5.976-8.363zM54.66 97.098v3.91l6.68 6.494-6.68-1.15v3.91l10.23.996v-3.344zm53.23 11.521-10.23.994v3.91l6.68-1.216-6.68 6.562v3.91l10.23-10.818zm11.45 3.402-10.676 6.165v3.193l10.676-6.164zm-53.676 6.354v3.193l10.676 6.164v-3.195zM167.914 76v12.867c-1.5-1.71-3.47-2.695-5.976-2.695-6.351 0-9.938 5.25-9.938 12.96v.493c0 7.36 3.61 12.844 9.89 12.844 2.767 0 4.852-1.172 6.4-3.14l.35 2.671h6.4V76zm116.62 0v36h2.624l.14-3.492c1.666 2.46 4.313 3.96 8.016 3.96 6.14 0 9.68-5.32 9.68-12.89v-.492c0-7.875-3.54-12.914-9.726-12.914-3.656 0-6.234 1.546-7.922 4.125V76zm-99.72.469c-2.39 0-3.959 1.524-3.959 3.633h-.001c0 2.11 1.57 3.632 3.96 3.632s3.94-1.522 3.94-3.632-1.549-3.633-3.94-3.633m36.592 3.914v6.258H217.8v5.156h3.61v13.078c0 5.437 2.858 7.594 7.429 7.594 1.687 0 3-.235 4.17-.633l.023-5.344c-.468.094-1.147.164-1.967.164-1.782 0-2.58-.516-2.58-2.578V91.797h4.291V86.64h-4.29v-6.258zm-17.135 5.789c-6.398 0-10.195 3.703-10.195 7.945 0 4.406 3.867 6.634 9 7.735 4.15.89 5.11 1.688 5.11 3.07 0 1.523-1.29 2.555-3.727 2.555-2.414 0-4.383-1.056-4.5-3.612h-6.703c0 4.126 3.867 8.604 11.039 8.604 6.562 0 10.781-3.329 10.781-7.805 0-5.133-4.219-6.96-9.633-8.016-3.398-.633-4.593-1.452-4.593-2.882 0-1.5 1.312-2.625 3.398-2.625 2.555 0 3.68 1.335 3.68 3.234h7.078c0-4.782-4.078-8.203-10.735-8.203m45.381 0c-2.46 0-4.336 1.312-5.578 3.492l-.234-3.023h-6.656V112h7.08V95.57c.75-1.617 2.343-2.46 4.92-2.46.728 0 1.805.116 2.484.187l.094-6.82c-.492-.188-1.406-.305-2.11-.305m16.832 0c-7.71 0-12.046 5.53-12.046 12.914v.492c0 7.383 4.335 12.89 12.093 12.89s12.047-5.507 12.047-12.89v-.492c0-7.383-4.29-12.914-12.094-12.914m55.248 0c-6.82 0-11.296 5.39-11.296 12.773v.774c0 7.383 4.476 12.75 11.343 12.75 6.844 0 11.297-5.367 11.297-12.75v-.774c0-7.383-4.453-12.773-11.344-12.773m-140.457.469V112h7.104V86.64zm155.743 0 8.6 12.421L336.642 112h3.328l7.193-10.734L354.406 112h3.283l-8.955-12.937 8.604-12.422h-3.328l-6.867 10.263-6.82-10.263zm-15.286 1.898c5.508 0 8.532 4.945 8.532 10.406v.774c0 5.555-3.024 10.383-8.485 10.383-5.53 0-8.531-4.828-8.531-10.383v-.774c0-5.46 3-10.406 8.484-10.406m-27.003.07c5.25 0 7.43 4.57 7.43 10.477v.492c0 5.906-2.274 10.453-7.384 10.453-3.89 0-6.257-2.11-7.43-4.781V93.766c1.056-2.648 3.165-5.157 7.384-5.157m-28.245 3.256c3.727 0 5.016 3.33 5.016 7.22v.493c0 4.008-1.314 7.195-4.97 7.195-3.703 0-4.99-3.187-4.99-7.195v-.492c0-3.891 1.288-7.22 4.944-7.22m-102.742.05c2.015 0 3.375.865 4.172 2.458v9.87c-.797 1.546-2.158 2.484-4.22 2.484-3.445 0-4.616-3.141-4.616-7.102v-.492c0-4.078 1.265-7.219 4.664-7.219" style="fill:#f0e2d1"/></svg>