<svg xmlns="http://www.w3.org/2000/svg" width="300" height="300"><path d="M150 53.91c-3.648 0-7.232.962-10.39 2.786L74.39 94.348a20.78 20.78 0 0 0-10.39 18v75.306c0 7.424 3.96 14.286 10.39 18l65.22 37.652a20.78 20.78 0 0 0 20.78 0l65.22-37.652a20.78 20.78 0 0 0 10.39-18v-75.306c0-7.424-3.96-14.286-10.39-18l-65.22-37.652A20.8 20.8 0 0 0 150 53.91" style="fill:#f0e2d1"/><path d="M148.796 61.11a6.9 6.9 0 0 0-2.26.824L83.464 98.348c-1.539.89-1.539 3.11 0 4l63.072 36.412a6.93 6.93 0 0 0 6.928 0l63.072-36.414c1.54-.89 1.54-3.112 0-4l-63.072-36.412a6.93 6.93 0 0 0-4.668-.824M73.91 115.934a2.31 2.31 0 0 0-1.91 2.274v72.828c0 2.474 1.32 4.76 3.464 6l63.072 36.414c1.54.888 3.463-.223 3.464-2v-72.83a6.92 6.92 0 0 0-3.464-6l-63.072-36.412a2.3 2.3 0 0 0-1.554-.274m152.18 0a2.3 2.3 0 0 0-1.554.274l-63.072 36.412a6.93 6.93 0 0 0-3.464 6v72.828c0 1.778 1.926 2.888 3.464 2l63.072-36.414a6.93 6.93 0 0 0 3.464-6v-72.826c0-1.122-.806-2.08-1.91-2.274" style="fill:#4f433c"/><path d="m181.84 93.697-21.352 12.326 5.532 3.196 21.351-12.326zm-40.242 3.207-28.97 6.9 6.774 3.913 17.93-5.074-8.672 10.42 6.774 3.91 11.953-16.725zm-56.278 47.29v7.82l13.362 12.99-13.362-2.3v7.82l20.461 1.99v-6.684zm106.461 23.044-20.46 1.989v7.822l13.36-2.438-13.36 13.127v7.82l20.46-21.636zm22.899 6.807-21.352 12.324v6.389l21.352-12.328zM107.328 186.75v6.387l21.352 12.328v-6.389z" style="fill:#f0e2d1"/></svg>