<svg xmlns="http://www.w3.org/2000/svg" xmlns:xlink="http://www.w3.org/1999/xlink" xml:space="preserve" width="720" height="256"><defs><linearGradient id="b"><stop offset="0" style="stop-color:#f0e2d1;stop-opacity:0"/><stop offset="1" style="stop-color:#f0e2d1;stop-opacity:.05"/></linearGradient><linearGradient id="a"><stop offset="0" style="stop-color:#4f433c;stop-opacity:1"/><stop offset="1" style="stop-color:#70594d;stop-opacity:1"/></linearGradient><linearGradient xlink:href="#a" id="c" x1="0" x2="720" y1="256" y2="0" gradientUnits="userSpaceOnUse"/><linearGradient xlink:href="#b" id="d" x1="0" x2="720" y1="256" y2="0" gradientUnits="userSpaceOnUse"/></defs><path d="M0 0h720v256H0z" style="fill:url(#c)"/><path d="m10.979 0 1.525 5.693c.863 3.223 4.221 5.16 7.443 4.297l19.168-5.135c2.348-.629 3.98-2.595 4.38-4.855h-4.13c-.26.468-.7.833-1.285.99L18.912 6.127c-1.147.307-2.237-.322-2.545-1.469L15.12 0Zm8.412 0c-.28.563-.099 1.262.449 1.584a1.22 1.22 0 0 0 1.644-.441L22.144 0Zm107.39 0-9.445 2.531c-3.222.864-5.162 4.221-4.299 7.444l4.62 17.236c.863 3.222 4.22 5.16 7.443 4.297l19.168-5.135c3.222-.863 5.162-4.223 4.298-7.445l-4.619-17.235A6 6 0 0 0 143.18 0Zm33.278 0 3.962 14.787c.864 3.222 4.222 5.162 7.444 4.299l19.168-5.137c3.222-.863 5.16-4.22 4.297-7.443L193.187 0h-4.142l2.021 7.541c.308 1.147-.321 2.238-1.468 2.545L170.43 15.22c-1.147.307-2.238-.322-2.545-1.469L164.199 0Zm49.693 0 .633 2.363c.863 3.223 4.223 5.163 7.445 4.3l19.166-5.138c1.012-.27 1.831-.844 2.543-1.525h-12.303l-10.443 2.799c-1.147.307-2.238-.324-2.545-1.47L213.893 0Zm103.865 0c-2.193 1.384-3.402 4.023-2.699 6.646l4.62 17.237c.863 3.222 4.22 5.16 7.442 4.297l19.168-5.137c3.223-.863 5.163-4.221 4.3-7.443L342.267 0h-4.141l4.457 16.635c.307 1.147-.324 2.237-1.47 2.545l-19.169 5.136c-1.147.308-2.237-.321-2.545-1.468L314.783 5.61c-.307-1.147.322-2.237 1.469-2.545L327.695 0Zm45.215 0 3.07 11.459c.864 3.222 4.221 5.16 7.444 4.297l19.168-5.135c3.222-.863 5.16-4.223 4.297-7.445L391.959 0h-4.14l1.128 4.21c.308 1.148-.321 2.24-1.468 2.548l-19.168 5.135c-1.147.307-2.238-.322-2.545-1.47L362.973 0Zm8.988 0 3.21 1.848-2.235 3.857a1.22 1.22 0 0 0 .441 1.645 1.22 1.22 0 0 0 1.645-.442l2.83-4.898a1.22 1.22 0 0 0-.441-1.645L372.637 0Zm40.928 0c1.234 2.589 4.102 4.1 6.963 3.334L428.15 0Zm100.225 0c-.33 1.058-.478 2.178-.172 3.318l4.617 17.235c.863 3.222 4.223 5.162 7.445 4.299l19.166-5.137c3.223-.864 5.163-4.221 4.3-7.444L541.038 0h-4.14l3.566 13.307c.307 1.147-.324 2.237-1.47 2.545l-19.167 5.136c-1.147.308-2.24-.323-2.547-1.47L512.664 2.28c-.265-.989.258-1.842 1.117-2.281Zm48.632 0 2.178 8.129c.864 3.222 4.221 5.162 7.444 4.299l19.168-5.137c3.17-.85 5.069-4.116 4.306-7.291h-4.11l.237.883c.307 1.147-.322 2.237-1.469 2.545l-19.168 5.136c-1.147.308-2.237-.323-2.545-1.47L561.746 0Zm10.448 0-1.375 2.377a1.22 1.22 0 0 0 .44 1.644 1.224 1.224 0 0 0 1.646-.44L570.83 0Zm6.92 0-.75.201.517 1.932L580.535.58 580.38 0Zm35.783 0c.918.203 1.871.262 2.836.004l.013-.004Zm72.398 0-18.539 4.967c-3.222.863-5.162 4.223-4.299 7.445l4.62 17.236c.863 3.223 4.22 5.16 7.443 4.297l19.168-5.134c3.222-.864 5.16-4.224 4.297-7.446L691.227 4.13c-.532-1.984-2.011-3.473-3.82-4.129Zm23.532 0 4.613 17.225c.863 3.222 4.223 5.16 7.445 4.296l1.256-.335v-4.141l-2.291.613c-1.147.308-2.238-.322-2.545-1.469L710.826 0ZM169.832.71a1.3 1.3 0 0 0-.227.028 1.24 1.24 0 0 0-.761.569 1.22 1.22 0 0 0 .441 1.644l3.863 2.225-2.234 3.857a1.224 1.224 0 0 0 .441 1.647 1.22 1.22 0 0 0 1.645-.442l2.828-4.898a1.223 1.223 0 0 0-.44-1.647L170.49.865c-.2-.11-.43-.162-.658-.154m-31.867.476c.981-.07 1.85.539 2.119 1.543l4.617 17.234c.308 1.147-.322 2.24-1.469 2.547l-19.168 5.135c-1.147.307-2.237-.322-2.544-1.47L116.902 8.94c-.307-1.147.322-2.237 1.47-2.544l19.167-5.137q.215-.058.426-.072m244.172.79-5.795 1.553.517 1.932 5.795-1.553zm105.574.985a6 6 0 0 0-1.81.2l-19.167 5.136c-3.222.863-5.162 4.221-4.298 7.443l4.619 17.237c.863 3.222 4.22 5.16 7.443 4.296l19.168-5.134c3.222-.864 5.16-4.223 4.297-7.446L493.346 7.46c-.702-2.618-3.05-4.39-5.635-4.498m229.4.185a1.3 1.3 0 0 0-.226.03 1.24 1.24 0 0 0-.762.566 1.224 1.224 0 0 0 .441 1.647L720 7.367V4.592l-2.232-1.29c-.2-.11-.429-.163-.657-.156m-31.867.477c.982-.07 1.85.537 2.12 1.541L691.98 22.4c.308 1.147-.321 2.238-1.468 2.545l-19.168 5.137c-1.147.307-2.238-.322-2.545-1.469l-4.62-17.236c-.307-1.147.324-2.238 1.471-2.545l19.168-5.137q.216-.057.426-.072M184.256 5.305l-5.795 1.552.518 1.932 5.794-1.553zm105.574.984a6 6 0 0 0-1.81.201l-19.168 5.135c-3.223.863-5.16 4.223-4.297 7.445l4.617 17.235c.863 3.222 4.223 5.162 7.445 4.299l19.168-5.137c3.222-.864 5.16-4.221 4.297-7.444l-4.617-17.236c-.702-2.618-3.05-4.389-5.635-4.498m229.4.188a1.3 1.3 0 0 0-.226.027 1.24 1.24 0 0 0-.762.568 1.22 1.22 0 0 0 .442 1.645l3.863 2.224-2.234 3.858a1.224 1.224 0 0 0 .44 1.646 1.22 1.22 0 0 0 1.645-.441l2.829-4.899a1.224 1.224 0 0 0-.442-1.646l-4.898-2.828a1.27 1.27 0 0 0-.657-.154m-31.867.476c.982-.07 1.85.537 2.12 1.541L494.1 25.73c.307 1.148-.322 2.238-1.47 2.545l-19.167 5.135c-1.147.308-2.238-.322-2.545-1.469l-4.62-17.236c-.307-1.147.324-2.237 1.472-2.545l19.166-5.137q.216-.056.427-.07M720 8.352l-1.807 3.119a1.22 1.22 0 0 0 .442 1.644c.463.262.987.11 1.365-.23zM91.95 9.617a6 6 0 0 0-1.811.201L70.97 14.955c-3.223.863-5.16 4.221-4.297 7.443l4.617 17.237c.863 3.222 4.223 5.16 7.445 4.297l19.168-5.135c3.223-.864 5.16-4.223 4.297-7.445l-4.617-17.237c-.702-2.618-3.05-4.389-5.635-4.498m229.4.188a1.3 1.3 0 0 0-.227.027 1.24 1.24 0 0 0-.762.568 1.22 1.22 0 0 0 .44 1.645l3.865 2.225-2.234 3.859a1.22 1.22 0 0 0 .441 1.644 1.22 1.22 0 0 0 1.645-.441l2.828-4.898a1.22 1.22 0 0 0-.442-1.645l-4.898-2.83a1.27 1.27 0 0 0-.656-.154m-31.87.476c.982-.07 1.85.538 2.12 1.541l4.619 17.237c.307 1.147-.322 2.237-1.469 2.545L275.58 36.74c-1.147.308-2.238-.323-2.545-1.47l-4.619-17.235c-.307-1.147.322-2.24 1.469-2.547l19.168-5.134q.215-.058.425-.073m244.174.79-5.797 1.552.518 1.932 5.797-1.553zm105.573.984a6 6 0 0 0-1.809.2l-19.168 5.136c-3.222.863-5.16 4.223-4.297 7.445l4.617 17.234c.864 3.223 4.223 5.163 7.446 4.3l19.166-5.138c3.222-.863 5.162-4.22 4.298-7.443l-4.619-17.236c-.701-2.618-3.05-4.39-5.634-4.498m-515.758 1.078a1.3 1.3 0 0 0-.227.03 1.24 1.24 0 0 0-.762.567 1.22 1.22 0 0 0 .44 1.645l3.863 2.225-2.232 3.857a1.22 1.22 0 0 0 .44 1.645 1.223 1.223 0 0 0 1.646-.44l2.828-4.9a1.22 1.22 0 0 0-.442-1.645l-4.898-2.828c-.2-.11-.428-.164-.656-.156m-31.87.476c.982-.07 1.85.54 2.12 1.543l4.619 17.235c.307 1.147-.322 2.237-1.469 2.545l-19.168 5.136c-1.147.308-2.237-.321-2.545-1.468l-4.619-17.237c-.307-1.147.322-2.237 1.469-2.545l19.168-5.136q.215-.058.426-.073m244.174.791-5.796 1.553.517 1.932 5.797-1.553zm105.573.985a6 6 0 0 0-1.809.199l-19.168 5.137c-3.222.863-5.162 4.22-4.299 7.443l4.62 17.236c.863 3.223 4.22 5.16 7.443 4.297l19.168-5.135c3.222-.863 5.162-4.223 4.299-7.445l-4.62-17.236c-.701-2.618-3.05-4.387-5.634-4.496m229.4.185a1.3 1.3 0 0 0-.226.028 1.24 1.24 0 0 0-.762.568 1.22 1.22 0 0 0 .441 1.645l3.864 2.224-2.235 3.86a1.22 1.22 0 0 0 .442 1.644 1.22 1.22 0 0 0 1.644-.441l2.83-4.899a1.22 1.22 0 0 0-.441-1.644l-4.899-2.828a1.3 1.3 0 0 0-.658-.157m-31.867.477c.981-.07 1.85.537 2.12 1.54l4.618 17.237c.308 1.147-.323 2.238-1.47 2.545l-19.168 5.137c-1.148.307-2.238-.324-2.545-1.47L617.816 23.8c-.307-1.147.322-2.24 1.47-2.547l19.167-5.135q.216-.057.426-.072M137.89 17.729l-5.795 1.552.517 1.932 5.795-1.553zm105.574.984a6 6 0 0 0-1.809.2l-19.168 5.136c-3.222.863-5.162 4.22-4.299 7.443l4.62 17.237c.863 3.222 4.22 5.162 7.443 4.298l19.168-5.136c3.222-.864 5.162-4.221 4.299-7.444l-4.62-17.236c-.7-2.618-3.05-4.39-5.634-4.498m229.4.187a1.3 1.3 0 0 0-.226.028 1.24 1.24 0 0 0-.762.568 1.22 1.22 0 0 0 .441 1.645l3.864 2.224-2.235 3.858a1.22 1.22 0 0 0 .442 1.644 1.22 1.22 0 0 0 1.644-.44l2.83-4.9a1.22 1.22 0 0 0-.441-1.644l-4.899-2.828a1.3 1.3 0 0 0-.658-.155m-31.867.475c.981-.07 1.85.54 2.12 1.543l4.618 17.234c.308 1.147-.323 2.238-1.47 2.545l-19.168 5.137c-1.147.307-2.238-.322-2.545-1.469l-4.617-17.236c-.308-1.147.321-2.238 1.468-2.545l19.168-5.137q.216-.057.426-.072m244.172.791-5.795 1.553.518 1.931 5.794-1.552zM45.584 22.041a6 6 0 0 0-1.809.201l-19.168 5.135c-3.222.863-5.162 4.223-4.298 7.445l4.619 17.235c.863 3.222 4.22 5.162 7.443 4.298L51.54 51.22c3.222-.864 5.162-4.221 4.299-7.444l-4.62-17.236c-.7-2.618-3.05-4.389-5.634-4.498m229.4.188a1.3 1.3 0 0 0-.226.027 1.24 1.24 0 0 0-.762.568 1.22 1.22 0 0 0 .442 1.645l3.863 2.224-2.235 3.858a1.224 1.224 0 0 0 .442 1.646 1.22 1.22 0 0 0 1.644-.441l2.828-4.899a1.223 1.223 0 0 0-.439-1.646l-4.9-2.828a1.27 1.27 0 0 0-.657-.154m-31.867.476c.982-.07 1.85.537 2.12 1.541l4.617 17.236c.307 1.147-.322 2.238-1.47 2.545l-19.167 5.135c-1.147.307-2.238-.322-2.545-1.469l-4.617-17.236c-.308-1.147.321-2.238 1.468-2.545l19.168-5.135q.216-.057.426-.072m244.172.79-5.795 1.552.518 1.932 5.795-1.553zm105.574.984a6 6 0 0 0-1.81.199l-19.168 5.136c-3.222.864-5.16 4.222-4.297 7.444l4.619 17.236c.863 3.222 4.221 5.162 7.443 4.299l19.168-5.137c3.223-.863 5.16-4.22 4.297-7.443l-4.617-17.236c-.701-2.619-3.05-4.39-5.635-4.498m-515.76 1.078a1.3 1.3 0 0 0-.226.027 1.24 1.24 0 0 0-.762.568 1.224 1.224 0 0 0 .442 1.647l3.863 2.222-2.234 3.86a1.22 1.22 0 0 0 .441 1.644 1.22 1.22 0 0 0 1.644-.441l2.829-4.898a1.22 1.22 0 0 0-.44-1.645l-4.9-2.828c-.2-.11-.428-.164-.656-.156m-31.867.476c.982-.07 1.85.538 2.12 1.541l4.617 17.237c.307 1.147-.322 2.237-1.47 2.544l-19.167 5.137c-1.147.308-2.238-.323-2.545-1.47l-4.62-17.235c-.306-1.147.325-2.237 1.472-2.545l19.168-5.137q.215-.057.425-.072m244.172.79-5.795 1.552.518 1.934 5.795-1.555zm105.574.984a6 6 0 0 0-1.81.2l-19.168 5.136c-3.222.863-5.16 4.223-4.297 7.445l4.617 17.234c.864 3.223 4.223 5.162 7.446 4.3l19.168-5.138c3.222-.863 5.16-4.22 4.296-7.443l-4.617-17.236c-.701-2.618-3.05-4.39-5.635-4.498m229.4.187a1.3 1.3 0 0 0-.226.027 1.24 1.24 0 0 0-.761.569 1.22 1.22 0 0 0 .439 1.644l3.865 2.225-2.234 3.857a1.224 1.224 0 0 0 .441 1.647 1.22 1.22 0 0 0 1.645-.442l2.828-4.898a1.224 1.224 0 0 0-.441-1.646l-4.899-2.829a1.27 1.27 0 0 0-.656-.154m-31.868.477c.981-.07 1.85.537 2.119 1.54l4.619 17.237c.307 1.147-.322 2.238-1.469 2.545l-19.168 5.135c-1.147.307-2.237-.322-2.545-1.469l-4.619-17.236c-.307-1.147.324-2.238 1.47-2.545l19.167-5.135q.214-.057.426-.072m-500.99 1.68-5.795 1.553.518 1.932 5.795-1.553Zm105.575.985a6 6 0 0 0-1.811.199l-19.168 5.137c-3.222.863-5.16 4.22-4.297 7.443l4.617 17.236c.864 3.223 4.223 5.16 7.446 4.297l19.166-5.135c3.222-.863 5.162-4.223 4.299-7.445l-4.62-17.234c-.701-2.618-3.048-4.39-5.632-4.498m229.4.185a1.3 1.3 0 0 0-.227.028 1.24 1.24 0 0 0-.761.568 1.223 1.223 0 0 0 .44 1.646l3.864 2.223-2.234 3.86a1.22 1.22 0 0 0 .44 1.644 1.224 1.224 0 0 0 1.646-.441l2.828-4.899a1.22 1.22 0 0 0-.441-1.644l-4.899-2.828c-.2-.11-.428-.164-.656-.157m-31.87.477c.982-.07 1.851.537 2.12 1.54l4.62 17.237c.306 1.147-.323 2.238-1.47 2.545l-19.168 5.137c-1.147.307-2.237-.324-2.545-1.47l-4.619-17.235c-.307-1.147.322-2.238 1.47-2.545l19.167-5.137q.215-.057.426-.072m244.175.789-5.797 1.555.517 1.931 5.797-1.553zM0 34.623v4.147c.458.261.836.652.99 1.228l4.62 17.236c.307 1.147-.324 2.238-1.471 2.545L0 60.89v4.14l5.174-1.386c3.222-.864 5.162-4.222 4.299-7.444l-4.62-17.236c-.628-2.345-2.596-3.94-4.853-4.34m228.621.03a1.3 1.3 0 0 0-.226.027 1.24 1.24 0 0 0-.762.568 1.22 1.22 0 0 0 .44 1.645l3.863 2.224-2.233 3.858a1.22 1.22 0 0 0 .44 1.644 1.223 1.223 0 0 0 1.646-.44l2.828-4.9a1.22 1.22 0 0 0-.441-1.644l-4.899-2.828a1.27 1.27 0 0 0-.656-.155m-31.87.474c.982-.07 1.851.54 2.12 1.543l4.62 17.234c.307 1.147-.324 2.238-1.471 2.545l-19.166 5.137c-1.148.307-2.238-.322-2.545-1.469l-4.62-17.236c-.307-1.147.322-2.238 1.47-2.545l19.167-5.137q.216-.057.426-.072m244.173.791-5.795 1.553.517 1.931 5.797-1.552zm105.574.984a6 6 0 0 0-1.809.2l-19.168 5.136c-3.222.864-5.162 4.221-4.298 7.444l4.619 17.236c.863 3.222 4.22 5.16 7.443 4.297l19.168-5.135c3.222-.863 5.162-4.223 4.299-7.445l-4.62-17.235c-.7-2.618-3.05-4.389-5.634-4.498M30.738 37.98a1.3 1.3 0 0 0-.226.028 1.24 1.24 0 0 0-.762.568 1.22 1.22 0 0 0 .441 1.645l3.864 2.224-2.233 3.858a1.223 1.223 0 0 0 .44 1.646 1.224 1.224 0 0 0 1.646-.441l2.828-4.899a1.224 1.224 0 0 0-.441-1.646l-4.899-2.828a1.3 1.3 0 0 0-.658-.155m212.305 1.266-5.795 1.553.518 1.931 5.795-1.552zm105.574.984a6 6 0 0 0-1.808.2l-19.168 5.136c-3.223.864-5.163 4.222-4.3 7.444l4.62 17.236c.863 3.222 4.221 5.162 7.443 4.299l19.168-5.137c3.223-.863 5.163-4.22 4.3-7.443l-4.62-17.236c-.702-2.619-3.05-4.39-5.635-4.499m229.4.188a1.3 1.3 0 0 0-.226.027 1.24 1.24 0 0 0-.762.569 1.22 1.22 0 0 0 .442 1.644l3.863 2.225-2.234 3.857a1.22 1.22 0 0 0 .441 1.645 1.22 1.22 0 0 0 1.645-.44l2.828-4.9a1.22 1.22 0 0 0-.44-1.645l-4.9-2.828a1.27 1.27 0 0 0-.656-.154m-31.867.475c.982-.07 1.85.539 2.12 1.543l4.617 17.234c.307 1.147-.322 2.237-1.469 2.545l-19.168 5.137c-1.147.307-2.238-.322-2.545-1.47l-4.617-17.236c-.307-1.147.322-2.237 1.469-2.544l19.168-5.137q.215-.058.425-.072m173.85.53c-.951 1.413-1.368 3.172-.896 4.93L720 49.7ZM45.162 42.575l-5.795 1.555.518 1.932 5.795-1.553zm105.574.985a6 6 0 0 0-1.81.2l-19.166 5.136c-3.223.863-5.162 4.223-4.3 7.445l4.62 17.236c.863 3.222 4.221 5.16 7.443 4.297l19.168-5.137c3.223-.863 5.16-4.22 4.297-7.443l-4.617-17.236c-.701-2.618-3.05-4.39-5.635-4.498m229.4.187a1.3 1.3 0 0 0-.226.027 1.24 1.24 0 0 0-.762.569 1.22 1.22 0 0 0 .442 1.644l3.863 2.225-2.234 3.857a1.224 1.224 0 0 0 .441 1.647 1.22 1.22 0 0 0 1.645-.442l2.828-4.898a1.223 1.223 0 0 0-.44-1.646l-4.9-2.829a1.27 1.27 0 0 0-.656-.154m-31.866.477c.98-.07 1.85.537 2.119 1.54L355.006 63c.307 1.147-.322 2.238-1.469 2.545L334.37 70.68c-1.147.307-2.237-.322-2.545-1.47l-4.619-17.235c-.307-1.147.324-2.238 1.47-2.545l19.169-5.135q.214-.057.426-.072m244.171.789-5.795 1.552.518 1.932 5.795-1.553zm105.575.984a6 6 0 0 0-1.81.2l-19.169 5.136c-3.222.863-5.16 4.221-4.297 7.443l4.617 17.237c.864 3.222 4.223 5.162 7.446 4.299l19.168-5.137c3.222-.864 5.16-4.221 4.297-7.444l-4.618-17.236c-.701-2.618-3.05-4.389-5.634-4.498m-515.76 1.078a1.3 1.3 0 0 0-.227.03 1.24 1.24 0 0 0-.761.566 1.224 1.224 0 0 0 .441 1.646l3.863 2.223-2.234 3.86a1.22 1.22 0 0 0 .441 1.644 1.22 1.22 0 0 0 1.645-.441l2.828-4.899a1.22 1.22 0 0 0-.44-1.644l-4.9-2.829c-.2-.11-.428-.163-.656-.156m-31.867.477c.981-.07 1.85.537 2.119 1.54l4.617 17.237c.307 1.147-.322 2.238-1.469 2.545l-19.168 5.137c-1.147.307-2.237-.324-2.545-1.47l-4.619-17.235c-.307-1.147.324-2.238 1.47-2.545l19.169-5.137q.215-.057.426-.072m244.172.789-5.795 1.555.517 1.931 5.795-1.553zm105.574.984a6 6 0 0 0-1.81.201l-19.169 5.135c-3.222.864-5.16 4.223-4.297 7.445l4.618 17.237c.863 3.222 4.223 5.16 7.445 4.297l19.168-5.137c3.222-.863 5.16-4.221 4.297-7.443l-4.62-17.237c-.7-2.618-3.048-4.389-5.632-4.498m197.531.664c.981-.07 1.85.538 2.12 1.541l4.618 17.237c.308 1.147-.321 2.237-1.468 2.545l-19.168 5.134c-1.147.308-2.238-.321-2.545-1.468l-4.62-17.237c-.307-1.147.322-2.237 1.47-2.545l19.167-5.134q.216-.058.426-.073M196.68 51.67l-5.797 1.553.517 1.931 5.797-1.552zm105.572.984a6 6 0 0 0-1.809.2l-19.168 5.136c-3.222.864-5.16 4.221-4.296 7.444l4.617 17.236c.863 3.222 4.223 5.16 7.445 4.297l19.166-5.135c3.222-.863 5.162-4.223 4.299-7.445l-4.62-17.235c-.7-2.618-3.05-4.389-5.634-4.498m229.402.186a1.3 1.3 0 0 0-.226.03 1.24 1.24 0 0 0-.762.566 1.223 1.223 0 0 0 .44 1.646l3.863 2.225-2.233 3.857a1.22 1.22 0 0 0 .44 1.645 1.224 1.224 0 0 0 1.646-.442l2.828-4.898a1.22 1.22 0 0 0-.441-1.645l-4.898-2.828c-.2-.11-.429-.164-.657-.156m-31.869.476c.982-.07 1.85.538 2.12 1.541l4.618 17.237c.308 1.147-.323 2.237-1.47 2.545l-19.166 5.136c-1.147.308-2.238-.323-2.545-1.47l-4.62-17.235c-.307-1.147.322-2.237 1.47-2.545l19.167-5.136q.216-.058.426-.073m-395.414 2.666a6 6 0 0 0-1.809.202l-19.167 5.134c-3.223.864-5.16 4.223-4.297 7.446l4.617 17.234c.863 3.222 4.223 5.162 7.445 4.299l19.166-5.137c3.222-.863 5.162-4.22 4.299-7.443l-4.62-17.237c-.7-2.618-3.05-4.389-5.634-4.498m229.4.188a1.3 1.3 0 0 0-.226.027 1.24 1.24 0 0 0-.762.569 1.22 1.22 0 0 0 .442 1.644l3.863 2.225-2.233 3.857a1.22 1.22 0 0 0 .44 1.645 1.223 1.223 0 0 0 1.646-.44l2.829-4.898a1.224 1.224 0 0 0-.442-1.647l-4.898-2.828a1.3 1.3 0 0 0-.659-.154m-31.867.475c.982-.07 1.85.539 2.12 1.542l4.619 17.235c.307 1.147-.324 2.24-1.471 2.547l-19.166 5.135c-1.147.307-2.24-.322-2.547-1.47l-4.617-17.236c-.308-1.147.322-2.237 1.469-2.544l19.168-5.137q.215-.059.425-.072m244.172.79-5.795 1.553.518 1.932 5.795-1.553zm105.574.985a6 6 0 0 0-1.808.2l-19.168 5.136c-3.222.863-5.162 4.221-4.299 7.443l4.62 17.237c.863 3.222 4.22 5.16 7.442 4.296l19.168-5.134c3.223-.864 5.163-4.223 4.3-7.446l-4.62-17.234c-.701-2.618-3.05-4.39-5.635-4.498m-515.76 1.078a1.3 1.3 0 0 0-.226.027 1.24 1.24 0 0 0-.762.569 1.22 1.22 0 0 0 .442 1.644l3.863 2.225-2.234 3.86a1.22 1.22 0 0 0 .441 1.644 1.22 1.22 0 0 0 1.645-.442l2.83-4.898a1.22 1.22 0 0 0-.442-1.645l-4.898-2.83c-.2-.11-.43-.162-.658-.154m-31.867.477c.982-.07 1.85.537 2.12 1.54l4.619 17.237c.307 1.147-.324 2.238-1.471 2.545l-19.168 5.137c-1.147.307-2.238-.324-2.545-1.471l-4.617-17.236c-.307-1.147.322-2.238 1.469-2.545l19.168-5.135q.215-.058.425-.072m244.172.789-5.795 1.552.518 1.932 5.795-1.553zm105.575.984a6 6 0 0 0-1.811.201l-19.166 5.135c-3.222.863-5.162 4.223-4.299 7.445l4.62 17.235c.863 3.222 4.22 5.162 7.443 4.299l19.168-5.137c3.222-.864 5.16-4.221 4.296-7.444l-4.617-17.236c-.701-2.618-3.05-4.389-5.634-4.498m229.4.188a1.3 1.3 0 0 0-.227.027 1.24 1.24 0 0 0-.761.568 1.22 1.22 0 0 0 .441 1.645l3.863 2.224-2.234 3.858a1.224 1.224 0 0 0 .441 1.646 1.22 1.22 0 0 0 1.645-.441l2.828-4.899a1.223 1.223 0 0 0-.44-1.646l-4.9-2.828a1.27 1.27 0 0 0-.656-.154m-31.867.474c.981-.07 1.85.54 2.119 1.543l4.617 17.234c.307 1.148-.322 2.24-1.469 2.547l-19.168 5.135c-1.147.307-2.237-.322-2.545-1.469l-4.619-17.236c-.307-1.147.324-2.238 1.471-2.545l19.168-5.137q.215-.057.426-.072m-500.989 1.684-5.794 1.552.517 1.932 5.795-1.553zm105.575.982a6 6 0 0 0-1.81.201l-19.167 5.137c-3.222.863-5.162 4.221-4.299 7.443l4.62 17.237c.863 3.222 4.22 5.16 7.443 4.297l19.168-5.135c3.222-.864 5.16-4.223 4.297-7.445l-4.618-17.237c-.701-2.618-3.05-4.389-5.634-4.498m229.4.188a1.3 1.3 0 0 0-.227.027 1.24 1.24 0 0 0-.761.568 1.22 1.22 0 0 0 .441 1.645l3.863 2.225-2.234 3.859a1.22 1.22 0 0 0 .441 1.644 1.22 1.22 0 0 0 1.645-.441l2.828-4.898a1.22 1.22 0 0 0-.44-1.645l-4.9-2.83a1.27 1.27 0 0 0-.656-.154m-31.867.476c.981-.07 1.85.538 2.119 1.541l4.617 17.237c.308 1.147-.322 2.237-1.469 2.544L439.521 92.2c-1.147.308-2.237-.323-2.544-1.47l-4.62-17.235c-.307-1.147.324-2.24 1.471-2.547l19.168-5.135q.215-.057.426-.072m244.172.79-5.795 1.552.517 1.932 5.795-1.553zM58.008 68.405a6 6 0 0 0-1.81.2l-19.169 5.136c-3.222.864-5.16 4.221-4.297 7.444l4.62 17.236c.863 3.222 4.22 5.162 7.443 4.299l19.168-5.137c3.222-.863 5.16-4.223 4.297-7.445l-4.617-17.235c-.702-2.618-3.05-4.389-5.635-4.498m229.4.186a1.3 1.3 0 0 0-.226.03 1.24 1.24 0 0 0-.762.566 1.224 1.224 0 0 0 .441 1.646l3.864 2.225-2.235 3.857a1.22 1.22 0 0 0 .442 1.645 1.22 1.22 0 0 0 1.644-.44l2.828-4.9a1.22 1.22 0 0 0-.441-1.645l-4.899-2.828a1.27 1.27 0 0 0-.656-.156m-31.867.476c.981-.07 1.85.538 2.12 1.541l4.616 17.237c.308 1.147-.321 2.237-1.468 2.545l-19.168 5.136c-1.147.308-2.238-.321-2.545-1.468l-4.62-17.237c-.307-1.147.324-2.237 1.471-2.545l19.166-5.136q.217-.058.428-.073m244.172.791-5.797 1.553.52 1.932 5.794-1.553zm105.572.983a6 6 0 0 0-1.808.201l-19.168 5.137c-3.223.863-5.16 4.22-4.297 7.443l4.617 17.236c.863 3.223 4.223 5.16 7.445 4.297l19.166-5.135c3.223-.863 5.162-4.223 4.3-7.445l-4.62-17.236c-.702-2.618-3.05-4.39-5.635-4.498m-515.758 1.08a1.3 1.3 0 0 0-.226.027 1.24 1.24 0 0 0-.762.569 1.22 1.22 0 0 0 .44 1.644l3.865 2.225-2.235 3.857a1.224 1.224 0 0 0 .442 1.647 1.22 1.22 0 0 0 1.644-.442l2.828-4.898a1.224 1.224 0 0 0-.441-1.647l-4.898-2.828a1.27 1.27 0 0 0-.657-.154m-31.869.476c.982-.07 1.85.538 2.12 1.541l4.618 17.237c.308 1.147-.321 2.237-1.468 2.545L43.76 98.855c-1.147.308-2.238-.321-2.545-1.468l-4.62-17.237c-.307-1.147.324-2.237 1.471-2.545l19.166-5.136q.216-.057.426-.07m244.174.79-5.797 1.552.518 1.932 5.797-1.553zm105.572.984a6 6 0 0 0-1.808.2l-19.168 5.136c-3.223.863-5.16 4.22-4.297 7.443l4.617 17.237c.863 3.222 4.223 5.162 7.445 4.298l19.166-5.136c3.223-.864 5.163-4.221 4.3-7.444l-4.62-17.236c-.701-2.618-3.05-4.39-5.635-4.498m229.4.185q-.113.005-.224.03a1.24 1.24 0 0 0-.762.568 1.22 1.22 0 0 0 .44 1.645l3.863 2.224-2.232 3.858a1.22 1.22 0 0 0 .44 1.644 1.223 1.223 0 0 0 1.646-.44l2.828-4.9a1.22 1.22 0 0 0-.442-1.644l-4.898-2.828a1.3 1.3 0 0 0-.658-.157m-31.867.477c.982-.07 1.85.54 2.12 1.543l4.619 17.234c.307 1.147-.324 2.238-1.47 2.545l-19.167 5.137c-1.147.307-2.24-.322-2.547-1.469l-4.617-17.236c-.307-1.147.322-2.238 1.469-2.545l19.168-5.137q.215-.057.426-.072m-500.986 1.682-5.797 1.552.518 1.934 5.797-1.555zm105.572.984a6 6 0 0 0-1.808.201l-19.168 5.135c-3.222.863-5.162 4.223-4.299 7.445l4.62 17.235c.863 3.222 4.22 5.162 7.443 4.298l19.168-5.136c3.222-.864 5.162-4.221 4.298-7.444l-4.619-17.236c-.701-2.618-3.05-4.389-5.635-4.498m229.4.188a1.3 1.3 0 0 0-.226.027 1.24 1.24 0 0 0-.761.568 1.22 1.22 0 0 0 .44 1.645l3.864 2.224-2.232 3.858a1.223 1.223 0 0 0 .44 1.646 1.224 1.224 0 0 0 1.646-.441l2.828-4.899a1.224 1.224 0 0 0-.442-1.646l-4.898-2.828c-.2-.11-.43-.162-.658-.155m-31.866.476c.981-.07 1.85.537 2.119 1.541l4.619 17.236c.307 1.147-.324 2.238-1.47 2.545l-19.169 5.135c-1.147.307-2.237-.322-2.545-1.469l-4.617-17.236c-.307-1.147.322-2.238 1.469-2.545l19.168-5.135q.214-.057.426-.072m244.172.79-5.795 1.552.517 1.932 5.795-1.553zM11.643 80.83a6 6 0 0 0-1.809.2L0 83.663v4.14l10.87-2.911q.215-.058.425-.073c.981-.07 1.85.54 2.12 1.543l4.616 17.235c.308 1.147-.321 2.237-1.468 2.545L0 110.582v4.14l17.598-4.714c3.222-.864 5.162-4.223 4.298-7.445l-4.619-17.235c-.701-2.618-3.05-4.389-5.634-4.498m229.4.186a1.3 1.3 0 0 0-.227.027 1.24 1.24 0 0 0-.761.568 1.224 1.224 0 0 0 .441 1.647l3.863 2.222-2.234 3.86a1.22 1.22 0 0 0 .441 1.644 1.22 1.22 0 0 0 1.645-.441l2.83-4.898A1.22 1.22 0 0 0 246.6 84l-4.899-2.828a1.3 1.3 0 0 0-.658-.156m-31.867.476c.981-.07 1.85.538 2.119 1.541l4.62 17.237c.306 1.147-.325 2.237-1.472 2.544l-19.168 5.137c-1.147.308-2.237-.323-2.545-1.47l-4.617-17.235c-.307-1.147.322-2.24 1.469-2.547l19.168-5.135q.215-.057.426-.072m244.172.79-5.795 1.552.517 1.934 5.795-1.555zm105.574.984a6 6 0 0 0-1.81.2l-19.167 5.136c-3.222.863-5.162 4.223-4.299 7.445l4.62 17.234c.863 3.223 4.22 5.162 7.443 4.3l19.168-5.138c3.222-.863 5.16-4.22 4.297-7.443l-4.617-17.236c-.702-2.618-3.05-4.39-5.635-4.498m-515.76 1.08a1.3 1.3 0 0 0-.226.027 1.24 1.24 0 0 0-.762.568 1.22 1.22 0 0 0 .441 1.645l3.864 2.225-2.235 3.857a1.22 1.22 0 0 0 .442 1.644 1.22 1.22 0 0 0 1.644-.439l2.828-4.9a1.22 1.22 0 0 0-.44-1.645l-4.9-2.828a1.27 1.27 0 0 0-.656-.154m212.305 1.265-5.795 1.553.517 1.932 5.795-1.553zm105.574.985a6 6 0 0 0-1.81.199l-19.168 5.137c-3.223.863-5.16 4.22-4.297 7.443l4.619 17.236c.863 3.223 4.22 5.16 7.443 4.297l19.168-5.135c3.222-.863 5.16-4.223 4.297-7.445l-4.617-17.234c-.702-2.618-3.05-4.39-5.635-4.498m229.4.185a1.3 1.3 0 0 0-.226.028 1.24 1.24 0 0 0-.762.568 1.224 1.224 0 0 0 .442 1.646l3.863 2.223-2.235 3.86a1.22 1.22 0 0 0 .442 1.644 1.22 1.22 0 0 0 1.644-.441l2.829-4.899a1.22 1.22 0 0 0-.442-1.644l-4.898-2.829c-.2-.11-.429-.163-.657-.156m-31.867.477c.982-.07 1.85.537 2.12 1.54l4.617 17.237c.307 1.147-.322 2.238-1.47 2.545l-19.167 5.137c-1.147.307-2.238-.324-2.545-1.47l-4.62-17.235c-.307-1.147.324-2.238 1.471-2.545l19.166-5.137q.217-.057.428-.072M57.586 88.939l-5.795 1.553.518 1.932 5.795-1.553zm105.574.985a6 6 0 0 0-1.81.199l-19.168 5.137c-3.223.863-5.16 4.22-4.297 7.443l4.617 17.236c.863 3.223 4.223 5.163 7.445 4.3l19.168-5.137c3.222-.864 5.16-4.222 4.297-7.444l-4.617-17.236c-.702-2.618-3.05-4.39-5.635-4.498m229.4.187a1.3 1.3 0 0 0-.226.028 1.24 1.24 0 0 0-.762.568 1.22 1.22 0 0 0 .442 1.645l3.863 2.224-2.234 3.858a1.22 1.22 0 0 0 .441 1.644 1.22 1.22 0 0 0 1.645-.44l2.828-4.9a1.22 1.22 0 0 0-.442-1.644l-4.898-2.828a1.27 1.27 0 0 0-.656-.155m-31.867.475c.982-.07 1.849.54 2.118 1.543l4.619 17.234c.307 1.147-.322 2.238-1.47 2.545l-19.167 5.137c-1.147.307-2.238-.322-2.545-1.469l-4.62-17.236c-.306-1.147.325-2.238 1.472-2.545l19.166-5.137q.216-.057.427-.072m244.172.791-5.797 1.553.518 1.931 5.797-1.552zm105.572.984a6 6 0 0 0-1.808.2l-19.168 5.136c-3.222.864-5.16 4.221-4.297 7.444l4.617 17.236c.864 3.222 4.223 5.16 7.446 4.297l19.166-5.135c1.572-.421 2.822-1.448 3.607-2.752v-7.273l-3.928-14.655c-.701-2.618-3.05-4.389-5.634-4.498M194.68 93.44a1.3 1.3 0 0 0-.227.028 1.24 1.24 0 0 0-.762.568 1.22 1.22 0 0 0 .44 1.645l3.865 2.224-2.234 3.858a1.224 1.224 0 0 0 .441 1.646 1.22 1.22 0 0 0 1.645-.441l2.828-4.899a1.224 1.224 0 0 0-.442-1.646l-4.898-2.828a1.27 1.27 0 0 0-.656-.155m-31.87.477c.982-.07 1.85.537 2.12 1.541l4.619 17.236c.307 1.147-.322 2.238-1.469 2.545l-19.168 5.135c-1.147.307-2.237-.322-2.545-1.469l-4.619-17.236c-.307-1.147.322-2.238 1.469-2.545l19.168-5.135q.215-.057.426-.072m244.174.79-5.797 1.552.518 1.931 5.797-1.552zm105.573.983a6 6 0 0 0-1.809.2l-19.168 5.136c-3.222.864-5.162 4.221-4.299 7.444l4.62 17.236c.863 3.222 4.22 5.162 7.443 4.299l19.168-5.137c3.222-.863 5.162-4.22 4.299-7.443l-4.62-17.237c-.701-2.618-3.05-4.389-5.634-4.498m197.533.663c.981-.07 1.85.539 2.119 1.543l4.62 17.234c.306 1.147-.325 2.237-1.472 2.545l-19.166 5.137c-1.147.307-2.24-.322-2.546-1.47l-4.618-17.236c-.307-1.147.322-2.237 1.47-2.544l19.167-5.137q.215-.058.426-.072m-500.986 1.681-5.797 1.555.517 1.932 5.797-1.553zM0 98.393v2.775l.113.064-.113.196v4.81l2.795-4.842a1.22 1.22 0 0 0-.441-1.644zm314.676.625a6 6 0 0 0-1.809.2l-19.168 5.136c-3.222.863-5.162 4.223-4.299 7.445l4.62 17.234c.863 3.222 4.22 5.162 7.443 4.299l19.168-5.137c3.222-.863 5.162-4.22 4.299-7.443l-4.62-17.236c-.701-2.618-3.05-4.39-5.634-4.498m229.4.187a1.3 1.3 0 0 0-.226.027 1.24 1.24 0 0 0-.762.569 1.22 1.22 0 0 0 .441 1.644l3.864 2.225-2.235 3.857a1.224 1.224 0 0 0 .442 1.647 1.22 1.22 0 0 0 1.644-.442l2.83-4.898a1.224 1.224 0 0 0-.441-1.647l-4.899-2.828a1.3 1.3 0 0 0-.658-.154m-31.867.477c.981-.07 1.85.537 2.12 1.54l4.618 17.237c.308 1.147-.323 2.238-1.47 2.545l-19.168 5.135c-1.147.307-2.238-.322-2.545-1.47l-4.618-17.235c-.307-1.147.322-2.238 1.47-2.545l19.167-5.135q.216-.058.426-.072m-500.988 1.681-5.795 1.553.517 1.932 5.795-1.553zm105.574.985a6 6 0 0 0-1.809.199l-19.168 5.137c-3.222.863-5.162 4.22-4.298 7.443l4.619 17.236c.863 3.223 4.22 5.16 7.443 4.297l19.168-5.135c3.222-.863 5.162-4.223 4.299-7.445l-4.62-17.234c-.7-2.618-3.05-4.39-5.634-4.498m229.4.185a1.3 1.3 0 0 0-.226.028 1.24 1.24 0 0 0-.762.568 1.224 1.224 0 0 0 .441 1.646l3.864 2.223-2.235 3.86a1.22 1.22 0 0 0 .442 1.644 1.22 1.22 0 0 0 1.644-.441l2.828-4.899a1.22 1.22 0 0 0-.44-1.644l-4.897-2.828a1.3 1.3 0 0 0-.659-.157m-31.867.477c.982-.07 1.85.537 2.12 1.54l4.616 17.237c.308 1.147-.321 2.238-1.468 2.545l-19.168 5.137c-1.147.307-2.238-.324-2.545-1.47l-4.617-17.235c-.308-1.147.321-2.238 1.468-2.545l19.168-5.137q.216-.057.426-.072m244.172.789-5.795 1.555.518 1.931 5.795-1.553zm105.574.984a6 6 0 0 0-1.81.201l-19.166 5.135c-3.223.864-5.163 4.223-4.3 7.445l4.62 17.237c.863 3.222 4.221 5.16 7.443 4.297l19.168-5.137c3.223-.863 5.16-4.221 4.297-7.443l-4.617-17.237c-.702-2.618-3.05-4.389-5.635-4.498m-515.76 1.08a1.3 1.3 0 0 0-.226.028 1.24 1.24 0 0 0-.762.568 1.22 1.22 0 0 0 .442 1.644l3.863 2.225-2.235 3.858a1.22 1.22 0 0 0 .442 1.644 1.22 1.22 0 0 0 1.644-.44l2.829-4.9a1.22 1.22 0 0 0-.44-1.644l-4.9-2.828a1.27 1.27 0 0 0-.657-.155m-31.867.475c.982-.07 1.85.54 2.12 1.543l4.617 17.234c.307 1.147-.322 2.24-1.47 2.547l-19.167 5.135c-1.147.307-2.238-.322-2.545-1.469l-4.62-17.236c-.307-1.147.324-2.238 1.472-2.545l19.167-5.137q.216-.057.426-.072m244.172.79-5.795 1.554.518 1.931 5.795-1.552zm105.574.985a6 6 0 0 0-1.81.2l-19.168 5.136c-3.222.864-5.16 4.221-4.297 7.444l4.617 17.236c.864 3.222 4.223 5.16 7.445 4.297l19.168-5.135c3.223-.863 5.16-4.223 4.297-7.445l-4.617-17.235c-.701-2.618-3.05-4.389-5.635-4.498m229.4.186a1.3 1.3 0 0 0-.226.03 1.24 1.24 0 0 0-.762.566 1.224 1.224 0 0 0 .442 1.646l3.863 2.223-2.234 3.86a1.22 1.22 0 0 0 .441 1.644 1.22 1.22 0 0 0 1.645-.442l2.828-4.898a1.22 1.22 0 0 0-.442-1.645l-4.898-2.828c-.2-.11-.428-.164-.656-.156m-31.866.476c.981-.07 1.85.538 2.119 1.541l4.617 17.237c.307 1.147-.322 2.237-1.469 2.545l-19.168 5.136c-1.147.308-2.237-.323-2.545-1.47l-4.619-17.235c-.307-1.147.324-2.237 1.47-2.545l19.167-5.136q.216-.058.428-.073m-500.989 1.682-5.795 1.553.518 1.931 5.795-1.552zm105.574.984a6 6 0 0 0-1.81.202l-19.168 5.134c-3.222.864-5.16 4.223-4.297 7.446l4.617 17.234c.864 3.222 4.223 5.162 7.446 4.299l19.168-5.137c3.222-.863 5.16-4.221 4.296-7.443l-4.617-17.237c-.701-2.618-3.05-4.389-5.635-4.498m229.4.188a1.3 1.3 0 0 0-.226.027 1.24 1.24 0 0 0-.761.569 1.22 1.22 0 0 0 .44 1.644l3.864 2.225-2.234 3.857a1.22 1.22 0 0 0 .441 1.645 1.22 1.22 0 0 0 1.645-.44l2.828-4.9a1.22 1.22 0 0 0-.441-1.645l-4.899-2.828a1.27 1.27 0 0 0-.656-.154m-31.868.475c.981-.07 1.85.539 2.119 1.542l4.619 17.235c.307 1.147-.322 2.24-1.469 2.547l-19.168 5.135c-1.147.307-2.237-.322-2.545-1.47l-4.619-17.236c-.307-1.147.322-2.237 1.469-2.544l19.168-5.137q.215-.058.426-.073m244.174.79-5.797 1.553.517 1.932 5.797-1.553zM70.43 114.77a6 6 0 0 0-1.809.2l-19.168 5.135c-3.222.864-5.16 4.224-4.297 7.446l4.617 17.236c.864 3.222 4.223 5.16 7.446 4.297l19.166-5.137c3.222-.863 5.162-4.22 4.299-7.443l-4.62-17.236c-.701-2.619-3.05-4.39-5.634-4.498m229.402.187a1.3 1.3 0 0 0-.227.027 1.24 1.24 0 0 0-.761.569 1.22 1.22 0 0 0 .44 1.644l3.862 2.225-2.232 3.86a1.22 1.22 0 0 0 .44 1.644 1.224 1.224 0 0 0 1.646-.442l2.828-4.898a1.22 1.22 0 0 0-.441-1.645l-4.899-2.83a1.27 1.27 0 0 0-.656-.154m-31.87.477c.982-.07 1.851.537 2.12 1.54l4.62 17.237c.307 1.147-.323 2.238-1.47 2.545l-19.168 5.137c-1.147.307-2.237-.324-2.544-1.471l-4.62-17.236c-.307-1.147.322-2.238 1.47-2.545l19.167-5.135q.215-.058.426-.072m244.175.789-5.797 1.552.517 1.932 5.797-1.553zm105.572.984a6 6 0 0 0-1.809.201l-19.168 5.135c-3.222.863-5.162 4.223-4.298 7.445l4.619 17.235c.863 3.222 4.22 5.162 7.443 4.298l19.168-5.136c3.222-.864 5.162-4.221 4.299-7.444l-4.62-17.236c-.7-2.618-3.05-4.389-5.634-4.498m-515.758 1.078a1.3 1.3 0 0 0-.226.03 1.24 1.24 0 0 0-.762.566 1.223 1.223 0 0 0 .44 1.646l3.863 2.225-2.233 3.857a1.22 1.22 0 0 0 .44 1.645 1.224 1.224 0 0 0 1.646-.441l2.828-4.899a1.22 1.22 0 0 0-.441-1.644l-4.899-2.829a1.3 1.3 0 0 0-.656-.156m-31.869.477c.981-.07 1.85.537 2.12 1.54l4.618 17.237c.308 1.147-.323 2.238-1.47 2.545l-19.166 5.137c-1.147.307-2.24-.322-2.547-1.469l-4.617-17.236c-.308-1.147.321-2.238 1.468-2.545l19.168-5.137q.216-.057.426-.072m244.172.79-5.795 1.553.518 1.932 5.794-1.553zm105.574.983a6 6 0 0 0-1.808.201l-19.168 5.137c-3.223.863-5.163 4.221-4.3 7.443l4.62 17.237c.863 3.222 4.221 5.16 7.443 4.297l19.168-5.135c3.222-.864 5.162-4.223 4.299-7.445l-4.62-17.237c-.7-2.618-3.05-4.389-5.634-4.498m229.4.188a1.3 1.3 0 0 0-.226.027 1.24 1.24 0 0 0-.762.568 1.22 1.22 0 0 0 .442 1.645l3.863 2.224-2.234 3.86a1.22 1.22 0 0 0 .44 1.644 1.22 1.22 0 0 0 1.645-.441l2.83-4.898a1.22 1.22 0 0 0-.44-1.645l-4.9-2.83a1.3 1.3 0 0 0-.657-.154m-31.867.476c.982-.07 1.85.538 2.12 1.541l4.617 17.237c.307 1.147-.322 2.237-1.47 2.544l-19.167 5.137c-1.147.308-2.238-.323-2.545-1.47l-4.617-17.237c-.308-1.147.322-2.237 1.469-2.545l19.168-5.135q.215-.057.425-.072m-500.988 1.682-5.795 1.553.518 1.931 5.795-1.552zm105.574.984a6 6 0 0 0-1.808.2L200.97 129.2c-3.223.864-5.163 4.221-4.3 7.444l4.62 17.236c.863 3.222 4.221 5.16 7.443 4.297l19.168-5.135c3.223-.863 5.16-4.223 4.297-7.445l-4.617-17.235c-.701-2.618-3.05-4.389-5.635-4.498m229.4.186a1.3 1.3 0 0 0-.226.03 1.24 1.24 0 0 0-.762.565 1.224 1.224 0 0 0 .442 1.647l3.863 2.225-2.234 3.857a1.22 1.22 0 0 0 .441 1.645 1.22 1.22 0 0 0 1.645-.44l2.828-4.9a1.22 1.22 0 0 0-.44-1.645l-4.9-2.828c-.2-.11-.428-.164-.656-.156m-31.867.476c.982-.07 1.85.538 2.12 1.541l4.617 17.237c.307 1.147-.322 2.237-1.469 2.545l-19.168 5.136c-1.147.308-2.237-.321-2.545-1.468l-4.617-17.237c-.307-1.147.322-2.237 1.469-2.545l19.168-5.136q.215-.058.425-.073m244.172.791-5.795 1.553.518 1.932 5.795-1.553zm-639.586 1.875a6 6 0 0 0-1.81.202L3.09 132.529c-1.3.349-2.307 1.169-3.09 2.157v9.8l3.41 12.723c.864 3.222 4.221 5.162 7.444 4.299l19.167-5.137c3.223-.863 5.16-4.221 4.297-7.443l-4.617-17.237c-.701-2.618-3.05-4.389-5.635-4.498m229.4.188a1.3 1.3 0 0 0-.226.027 1.24 1.24 0 0 0-.761.569 1.22 1.22 0 0 0 .44 1.644l3.864 2.225-2.234 3.857a1.224 1.224 0 0 0 .441 1.647 1.22 1.22 0 0 0 1.645-.442l2.828-4.898a1.223 1.223 0 0 0-.44-1.647l-4.9-2.828a1.27 1.27 0 0 0-.656-.154m-31.866.476c.981-.07 1.85.538 2.119 1.541l4.617 17.237c.307 1.147-.322 2.237-1.469 2.545l-19.168 5.134c-1.147.308-2.237-.321-2.545-1.468l-4.619-17.237c-.307-1.147.324-2.237 1.47-2.545l19.169-5.136q.215-.057.426-.07m244.171.79-5.794 1.552.517 1.932 5.795-1.553zm105.575.984a6 6 0 0 0-1.81.2l-19.169 5.136c-3.222.863-5.16 4.22-4.297 7.443l4.618 17.236c.863 3.223 4.223 5.163 7.445 4.3l19.168-5.137c3.222-.864 5.16-4.223 4.297-7.446l-4.618-17.234c-.701-2.618-3.05-4.39-5.634-4.498m-515.76 1.078a1.3 1.3 0 0 0-.227.027 1.24 1.24 0 0 0-.761.569 1.22 1.22 0 0 0 .441 1.644l3.863 2.225-2.234 3.86a1.22 1.22 0 0 0 .441 1.644 1.22 1.22 0 0 0 1.645-.442l2.828-4.898a1.22 1.22 0 0 0-.441-1.645l-4.899-2.83a1.27 1.27 0 0 0-.656-.154m-31.867.477c.981-.07 1.85.537 2.119 1.54l4.617 17.237c.307 1.147-.322 2.237-1.469 2.545l-19.168 5.137c-1.147.307-2.237-.324-2.545-1.471L2.655 138.94c-.307-1.147.324-2.24 1.471-2.546l19.166-5.135q.216-.058.428-.072m244.172.789-5.795 1.552.517 1.932 5.795-1.553zm105.574.984a6 6 0 0 0-1.81.201l-19.169 5.135c-3.222.863-5.16 4.223-4.297 7.445l4.618 17.235c.863 3.222 4.223 5.162 7.445 4.298l19.166-5.136c3.222-.864 5.162-4.221 4.299-7.444l-4.62-17.236c-.7-2.618-3.048-4.39-5.632-4.498m229.4.187a1.3 1.3 0 0 0-.226.028 1.24 1.24 0 0 0-.762.568 1.22 1.22 0 0 0 .44 1.645l3.865 2.224-2.235 3.858a1.223 1.223 0 0 0 .44 1.646 1.224 1.224 0 0 0 1.646-.441l2.828-4.899a1.224 1.224 0 0 0-.441-1.646l-4.899-2.828a1.27 1.27 0 0 0-.656-.154m-31.869.477c.982-.07 1.85.537 2.12 1.541l4.618 17.236c.308 1.147-.321 2.238-1.468 2.545l-19.168 5.135c-1.147.307-2.238-.322-2.545-1.469l-4.62-17.236c-.307-1.147.322-2.238 1.47-2.545l19.167-5.137q.216-.056.426-.07m-500.987 1.68-5.797 1.552.517 1.932 5.797-1.553zm105.572.984a6 6 0 0 0-1.809.2l-19.168 5.136c-3.222.863-5.16 4.221-4.296 7.443l4.617 17.237c.863 3.222 4.223 5.16 7.445 4.297l19.166-5.135c3.222-.864 5.162-4.223 4.299-7.446l-4.62-17.234c-.7-2.618-3.05-4.389-5.634-4.498m229.402.186a1.3 1.3 0 0 0-.226.027 1.24 1.24 0 0 0-.762.568 1.22 1.22 0 0 0 .44 1.645l3.863 2.224-2.233 3.86a1.22 1.22 0 0 0 .44 1.644 1.224 1.224 0 0 0 1.646-.441l2.828-4.899a1.22 1.22 0 0 0-.44-1.644l-4.9-2.828a1.27 1.27 0 0 0-.656-.156m-31.869.476c.982-.07 1.85.538 2.12 1.541l4.619 17.237c.307 1.147-.324 2.237-1.471 2.544l-19.166 5.137c-1.147.308-2.24-.324-2.547-1.47l-4.617-17.235c-.308-1.147.321-2.24 1.468-2.547l19.168-5.135q.216-.057.426-.072m244.172.79-5.795 1.552.518 1.934 5.795-1.555zM720 139.206l-18.115 4.854c-3.222.863-5.162 4.223-4.3 7.445l4.62 17.234c.863 3.222 4.221 5.162 7.443 4.3L720 170.265v-4.141l-11.387 3.05c-1.147.308-2.237-.323-2.545-1.47l-4.617-17.234c-.307-1.147.322-2.24 1.469-2.547l17.08-4.576Zm-512.898.598a1.3 1.3 0 0 0-.227.027 1.24 1.24 0 0 0-.762.568 1.22 1.22 0 0 0 .442 1.645l3.863 2.224-2.232 3.858a1.22 1.22 0 0 0 .439 1.644 1.223 1.223 0 0 0 1.646-.439l2.829-4.9a1.22 1.22 0 0 0-.442-1.645l-4.898-2.828c-.2-.11-.43-.162-.658-.154m-31.868.474c.982-.07 1.85.54 2.12 1.543l4.619 17.235c.307 1.147-.324 2.237-1.471 2.545l-19.166 5.136c-1.147.308-2.24-.321-2.547-1.468l-4.617-17.237c-.307-1.147.322-2.237 1.469-2.545l19.168-5.136q.215-.058.425-.073m244.172.791-5.795 1.553.518 1.932 5.795-1.553zm105.574.985a6 6 0 0 0-1.808.199l-19.168 5.137c-3.222.863-5.162 4.22-4.299 7.443l4.62 17.236c.863 3.223 4.22 5.16 7.443 4.297l19.168-5.135c3.222-.863 5.162-4.223 4.298-7.445l-4.619-17.234c-.701-2.618-3.05-4.39-5.635-4.498M9.22 143.133a1.3 1.3 0 0 0-.226.027 1.24 1.24 0 0 0-.762.568 1.22 1.22 0 0 0 .442 1.645l3.863 2.225-2.234 3.857a1.224 1.224 0 0 0 .441 1.647 1.22 1.22 0 0 0 1.645-.442l2.83-4.898a1.224 1.224 0 0 0-.442-1.647l-4.898-2.828c-.2-.11-.43-.162-.658-.154m212.305 1.265-5.795 1.553.518 1.932 5.795-1.553zm105.575.985a6 6 0 0 0-1.81.199l-19.167 5.137c-3.222.863-5.162 4.22-4.299 7.443l4.62 17.236c.863 3.223 4.22 5.163 7.443 4.3l19.168-5.137c3.222-.864 5.16-4.222 4.297-7.444l-4.618-17.236c-.701-2.618-3.05-4.39-5.634-4.498m229.4.187a1.3 1.3 0 0 0-.227.028 1.24 1.24 0 0 0-.761.568 1.22 1.22 0 0 0 .441 1.645l3.863 2.224-2.234 3.858a1.22 1.22 0 0 0 .441 1.644 1.22 1.22 0 0 0 1.645-.44l2.828-4.9a1.22 1.22 0 0 0-.44-1.644l-4.9-2.828a1.27 1.27 0 0 0-.656-.155m-31.867.475c.981-.07 1.85.54 2.119 1.543l4.617 17.234c.307 1.147-.322 2.238-1.469 2.545l-19.168 5.137c-1.147.307-2.237-.322-2.545-1.469l-4.619-17.236c-.307-1.147.324-2.238 1.471-2.545l19.168-5.137q.215-.057.426-.072m-500.988 1.682-5.795 1.552.517 1.934 5.795-1.553zm105.574.984a6 6 0 0 0-1.81.201l-19.167 5.135c-3.222.863-5.162 4.223-4.299 7.445l4.62 17.235c.863 3.222 4.22 5.162 7.443 4.298l19.168-5.136c3.222-.864 5.16-4.221 4.297-7.444l-4.617-17.236c-.702-2.618-3.05-4.39-5.635-4.498m229.4.187a1.3 1.3 0 0 0-.226.028 1.24 1.24 0 0 0-.762.568 1.22 1.22 0 0 0 .441 1.645l3.864 2.224-2.235 3.858a1.224 1.224 0 0 0 .442 1.646 1.22 1.22 0 0 0 1.644-.441l2.828-4.899a1.223 1.223 0 0 0-.44-1.646l-4.9-2.828a1.27 1.27 0 0 0-.656-.155m-31.867.477c.981-.07 1.85.537 2.12 1.541l4.616 17.236c.308 1.147-.321 2.238-1.468 2.545l-19.168 5.135c-1.147.307-2.238-.322-2.545-1.469l-4.62-17.236c-.307-1.147.324-2.238 1.471-2.545l19.166-5.135q.217-.057.428-.072m244.172.79-5.795 1.552.517 1.931 5.795-1.552zm105.574.983a6 6 0 0 0-1.81.2l-19.168 5.136c-3.223.864-5.16 4.221-4.297 7.444l4.617 17.236c.863 3.222 4.223 5.162 7.445 4.299l19.168-5.137c3.222-.863 5.16-4.22 4.297-7.443l-4.62-17.237c-.7-2.618-3.048-4.389-5.632-4.498m-515.76 1.079a1.3 1.3 0 0 0-.226.027 1.24 1.24 0 0 0-.762.568 1.224 1.224 0 0 0 .441 1.647l3.864 2.222-2.235 3.86a1.22 1.22 0 0 0 .442 1.644 1.22 1.22 0 0 0 1.644-.441l2.828-4.899a1.22 1.22 0 0 0-.441-1.644l-4.898-2.828c-.2-.11-.429-.164-.657-.156m-31.867.476c.982-.07 1.85.537 2.12 1.541l4.616 17.236c.308 1.148-.321 2.238-1.468 2.545l-19.168 5.137c-1.147.307-2.238-.324-2.545-1.47l-4.62-17.235c-.307-1.147.324-2.238 1.471-2.545l19.166-5.137q.217-.057.428-.072m244.172.79-5.797 1.554.518 1.932 5.797-1.553zm105.572.984a6 6 0 0 0-1.808.2l-19.168 5.136c-3.223.863-5.16 4.223-4.297 7.445l4.617 17.234c.863 3.222 4.223 5.162 7.445 4.299l19.166-5.137c3.223-.863 5.163-4.22 4.3-7.443l-4.62-17.236c-.702-2.618-3.05-4.39-5.635-4.498m229.403.187a1.3 1.3 0 0 0-.227.027 1.24 1.24 0 0 0-.762.569 1.22 1.22 0 0 0 .44 1.644l3.863 2.225-2.232 3.857a1.223 1.223 0 0 0 .44 1.647 1.224 1.224 0 0 0 1.646-.442l2.828-4.898a1.224 1.224 0 0 0-.442-1.647l-4.898-2.828a1.27 1.27 0 0 0-.656-.154m-31.87.477c.982-.07 1.85.537 2.12 1.54l4.619 17.237c.307 1.147-.324 2.238-1.471 2.545l-19.166 5.135c-1.147.307-2.238-.322-2.545-1.47l-4.62-17.235c-.306-1.147.323-2.238 1.47-2.545l19.168-5.135q.215-.058.425-.072m-500.986 1.681-5.797 1.553.518 1.932 5.797-1.553zm105.572.985a6 6 0 0 0-1.808.199l-19.168 5.137c-3.222.863-5.16 4.22-4.297 7.443l4.617 17.236c.864 3.223 4.221 5.16 7.443 4.297l19.168-5.135c3.223-.863 5.163-4.223 4.3-7.445l-4.62-17.234c-.701-2.618-3.05-4.39-5.635-4.498m229.4.185a1.3 1.3 0 0 0-.226.027 1.24 1.24 0 0 0-.762.569 1.224 1.224 0 0 0 .442 1.646l3.863 2.223-2.232 3.86a1.22 1.22 0 0 0 .44 1.644 1.224 1.224 0 0 0 1.646-.442l2.828-4.898a1.22 1.22 0 0 0-.442-1.644l-4.898-2.829a1.3 1.3 0 0 0-.658-.156m-31.866.477c.981-.07 1.85.537 2.119 1.54l4.619 17.237c.307 1.147-.324 2.238-1.47 2.545l-19.167 5.137c-1.147.307-2.24-.324-2.547-1.471l-4.617-17.234c-.307-1.147.322-2.238 1.469-2.545l19.168-5.137q.214-.057.426-.072M720 159.912l-3.355.9.517 1.932 2.838-.76Zm-637.146 1.223a6 6 0 0 0-1.81.199l-19.167 5.137c-3.222.863-5.162 4.22-4.299 7.443l4.62 17.236c.863 3.223 4.22 5.163 7.443 4.3l19.168-5.137c3.222-.864 5.162-4.222 4.298-7.444l-4.619-17.236c-.701-2.618-3.05-4.39-5.634-4.498m229.4.187a1.3 1.3 0 0 0-.227.028 1.24 1.24 0 0 0-.761.568 1.22 1.22 0 0 0 .441 1.644l3.863 2.225-2.234 3.857a1.22 1.22 0 0 0 .441 1.645 1.22 1.22 0 0 0 1.645-.44l2.83-4.9a1.22 1.22 0 0 0-.441-1.644l-4.899-2.828c-.2-.11-.43-.162-.658-.155m-31.867.475c.981-.07 1.85.54 2.119 1.543l4.619 17.234c.307 1.147-.324 2.24-1.47 2.547l-19.169 5.135c-1.147.307-2.237-.322-2.545-1.469l-4.617-17.236c-.307-1.147.322-2.238 1.469-2.545l19.168-5.137q.215-.057.426-.072m244.172.79-5.795 1.554.517 1.931 5.795-1.552zm105.574.985a6 6 0 0 0-1.81.2l-19.167 5.136c-3.222.864-5.162 4.221-4.299 7.444l4.62 17.236c.863 3.222 4.22 5.16 7.443 4.297l19.168-5.135c3.222-.863 5.16-4.223 4.297-7.445l-4.617-17.235c-.702-2.618-3.05-4.389-5.635-4.498m-515.76 1.078a1.3 1.3 0 0 0-.227.028 1.24 1.24 0 0 0-.761.568 1.22 1.22 0 0 0 .441 1.645l3.863 2.224-2.234 3.858a1.224 1.224 0 0 0 .441 1.646 1.22 1.22 0 0 0 1.645-.441l2.83-4.899a1.22 1.22 0 0 0-.441-1.644l-4.899-2.83c-.2-.11-.43-.162-.658-.155m-31.867.477c.981-.07 1.85.537 2.119 1.541l4.617 17.236c.308 1.147-.322 2.238-1.469 2.545l-19.168 5.135c-1.147.307-2.237-.322-2.544-1.469l-4.618-17.236c-.307-1.147.322-2.238 1.47-2.545l19.167-5.135q.215-.057.426-.072m244.172.789-5.795 1.553.517 1.931 5.795-1.552zm105.574.984a6 6 0 0 0-1.81.2l-19.167 5.136c-3.222.864-5.162 4.223-4.298 7.446l4.619 17.234c.863 3.222 4.22 5.162 7.443 4.299l19.168-5.137c3.222-.863 5.16-4.221 4.297-7.443l-4.617-17.237c-.702-2.618-3.05-4.389-5.635-4.498m229.4.188a1.3 1.3 0 0 0-.226.027 1.24 1.24 0 0 0-.762.569 1.22 1.22 0 0 0 .441 1.644l3.864 2.225-2.235 3.857a1.22 1.22 0 0 0 .442 1.645 1.22 1.22 0 0 0 1.644-.44l2.828-4.9a1.22 1.22 0 0 0-.439-1.645l-4.9-2.828a1.27 1.27 0 0 0-.657-.154m-31.867.475c.982-.07 1.85.539 2.12 1.542l4.616 17.235c.308 1.147-.321 2.24-1.468 2.547l-19.168 5.134c-1.147.308-2.238-.321-2.545-1.468l-4.62-17.237c-.307-1.147.324-2.237 1.471-2.545l19.168-5.136q.216-.058.426-.073m-500.988 1.683-5.795 1.553.518 1.931 5.794-1.552zm105.574.983a6 6 0 0 0-1.81.2l-19.168 5.135c-3.223.864-5.16 4.224-4.297 7.446l4.617 17.236c.863 3.222 4.223 5.16 7.445 4.297l19.168-5.137c3.222-.863 5.16-4.22 4.297-7.443l-4.617-17.236c-.702-2.619-3.05-4.39-5.635-4.498m229.4.187a1.3 1.3 0 0 0-.226.027 1.24 1.24 0 0 0-.762.569 1.22 1.22 0 0 0 .442 1.644l3.863 2.225-2.234 3.86a1.22 1.22 0 0 0 .44 1.644 1.22 1.22 0 0 0 1.645-.442l2.829-4.898a1.22 1.22 0 0 0-.442-1.645l-4.898-2.83a1.27 1.27 0 0 0-.657-.154m-31.867.477c.982-.07 1.85.537 2.12 1.54l4.617 17.237c.307 1.147-.322 2.237-1.47 2.545l-19.167 5.137c-1.147.307-2.238-.324-2.545-1.471l-4.62-17.236c-.307-1.148.325-2.238 1.472-2.545l19.166-5.135q.216-.058.427-.072m244.172.789-5.797 1.552.518 1.932 5.797-1.553zM36.49 173.559a6 6 0 0 0-1.81.199l-19.168 5.137c-3.223.863-5.16 4.22-4.297 7.443l4.617 17.236c.863 3.222 4.223 5.16 7.445 4.297l19.168-5.135c3.223-.863 5.16-4.223 4.297-7.445l-4.617-17.234c-.702-2.618-3.05-4.39-5.635-4.498m229.4.185a1.3 1.3 0 0 0-.226.03 1.24 1.24 0 0 0-.762.566 1.223 1.223 0 0 0 .44 1.646l3.865 2.225-2.234 3.857a1.22 1.22 0 0 0 .441 1.645 1.22 1.22 0 0 0 1.645-.442l2.828-4.898a1.22 1.22 0 0 0-.442-1.644l-4.898-2.829c-.2-.11-.428-.164-.656-.156m-31.869.477c.982-.07 1.85.537 2.12 1.54l4.619 17.237c.307 1.147-.322 2.238-1.469 2.545l-19.168 5.137c-1.147.307-2.238-.324-2.545-1.471l-4.619-17.234c-.307-1.147.322-2.238 1.469-2.545l19.168-5.137q.215-.057.425-.072m244.174.79-5.797 1.553.518 1.932 5.797-1.553zm105.573.983a6 6 0 0 0-1.809.201l-19.168 5.135c-3.222.863-5.16 4.223-4.297 7.445l4.617 17.237c.864 3.222 4.223 5.16 7.446 4.297l19.166-5.137c3.222-.864 5.162-4.221 4.298-7.443l-4.619-17.237c-.701-2.618-3.05-4.389-5.634-4.498m-515.758 1.08a1.3 1.3 0 0 0-.227.028 1.24 1.24 0 0 0-.762.568 1.22 1.22 0 0 0 .44 1.644l3.865 2.225-2.234 3.857a1.22 1.22 0 0 0 .44 1.645 1.223 1.223 0 0 0 1.646-.44l2.828-4.898a1.224 1.224 0 0 0-.442-1.646l-4.898-2.829a1.27 1.27 0 0 0-.656-.154m-31.87.475c.982-.07 1.85.54 2.12 1.543l4.619 17.234c.307 1.147-.322 2.24-1.469 2.547l-19.168 5.135c-1.147.307-2.237-.322-2.545-1.469l-4.619-17.236c-.307-1.147.322-2.238 1.469-2.545l19.168-5.137q.215-.057.426-.072m244.174.79-5.796 1.554.517 1.931 5.797-1.553zm105.573.985a6 6 0 0 0-1.809.2l-19.168 5.136c-3.222.864-5.162 4.221-4.299 7.444l4.62 17.236c.863 3.222 4.22 5.16 7.443 4.297l19.168-5.135c3.222-.863 5.162-4.223 4.299-7.445l-4.62-17.235c-.701-2.618-3.05-4.389-5.634-4.498m229.4.186a1.3 1.3 0 0 0-.226.03 1.24 1.24 0 0 0-.762.565 1.224 1.224 0 0 0 .441 1.647l3.864 2.225-2.233 3.857a1.22 1.22 0 0 0 .44 1.645 1.22 1.22 0 0 0 1.644-.442l2.83-4.898a1.22 1.22 0 0 0-.441-1.645l-4.899-2.828a1.3 1.3 0 0 0-.658-.156m-31.867.476c.981-.07 1.85.538 2.12 1.541l4.618 17.237c.308 1.147-.323 2.237-1.47 2.545l-19.168 5.136c-1.148.308-2.238-.321-2.545-1.468l-4.618-17.237c-.307-1.147.322-2.237 1.47-2.545l19.167-5.136q.216-.058.426-.073m-500.988 1.682-5.795 1.553.517 1.931 5.795-1.552zm105.574.984a6 6 0 0 0-1.809.202l-19.168 5.134c-3.222.864-5.162 4.223-4.299 7.446l4.62 17.234c.863 3.222 4.22 5.162 7.443 4.299l19.168-5.137c3.222-.863 5.162-4.221 4.299-7.443l-4.62-17.237c-.7-2.618-3.05-4.389-5.634-4.498m229.4.188a1.3 1.3 0 0 0-.226.027 1.24 1.24 0 0 0-.762.569 1.22 1.22 0 0 0 .441 1.644l3.864 2.225-2.235 3.857a1.224 1.224 0 0 0 .442 1.647 1.22 1.22 0 0 0 1.644-.442l2.83-4.898a1.224 1.224 0 0 0-.441-1.647l-4.899-2.828a1.3 1.3 0 0 0-.658-.154m-31.867.476c.981-.07 1.85.538 2.12 1.541l4.618 17.237c.308 1.147-.323 2.237-1.47 2.545l-19.168 5.134c-1.147.308-2.238-.321-2.545-1.468l-4.617-17.237c-.308-1.147.321-2.237 1.468-2.545l19.168-5.136q.216-.057.426-.07m244.172.79-5.795 1.552.518 1.932 5.795-1.553zm-410.186 2.062a1.3 1.3 0 0 0-.226.027 1.24 1.24 0 0 0-.762.569 1.22 1.22 0 0 0 .442 1.644l3.863 2.225-2.235 3.86a1.22 1.22 0 0 0 .442 1.644 1.22 1.22 0 0 0 1.644-.442l2.828-4.898a1.22 1.22 0 0 0-.439-1.645l-4.9-2.83a1.27 1.27 0 0 0-.657-.154m-31.867.477c.982-.07 1.85.537 2.12 1.54l4.617 17.237c.307 1.147-.322 2.237-1.47 2.545l-19.167 5.137c-1.147.307-2.238-.324-2.545-1.471l-4.617-17.235c-.308-1.147.321-2.24 1.468-2.546l19.168-5.135q.216-.058.426-.072m244.172.789-5.795 1.552.518 1.932 5.795-1.553zm105.574.984a6 6 0 0 0-1.81.201l-19.168 5.135c-3.222.863-5.16 4.223-4.297 7.445l4.619 17.235c.863 3.222 4.221 5.162 7.443 4.298l19.168-5.136c3.223-.864 5.16-4.221 4.297-7.444l-4.617-17.236c-.701-2.618-3.05-4.39-5.635-4.498M720 188.9l-5.691 1.526c-3.223.863-5.163 4.22-4.3 7.443l4.62 17.236c.677 2.527 2.894 4.209 5.371 4.424v-4.113c-.695-.175-1.3-.573-1.508-1.346l-4.619-17.236c-.307-1.147.324-2.238 1.47-2.545l4.657-1.248Zm-698.355.596a1.3 1.3 0 0 0-.227.03 1.24 1.24 0 0 0-.762.568 1.22 1.22 0 0 0 .442 1.644l3.863 2.225-2.234 3.857a1.22 1.22 0 0 0 .441 1.645 1.22 1.22 0 0 0 1.645-.44l2.828-4.9a1.22 1.22 0 0 0-.44-1.645l-4.9-2.828c-.2-.11-.428-.164-.656-.156m212.304 1.268-5.795 1.552.518 1.932 5.795-1.553zm105.574.984a6 6 0 0 0-1.81.2l-19.168 5.136c-3.222.863-5.16 4.221-4.297 7.443l4.617 17.237c.864 3.222 4.223 5.16 7.446 4.297l19.168-5.135c3.222-.864 5.16-4.223 4.296-7.446l-4.617-17.236c-.701-2.618-3.05-4.387-5.635-4.496m229.4.186a1.3 1.3 0 0 0-.226.027 1.24 1.24 0 0 0-.761.568 1.22 1.22 0 0 0 .439 1.645l3.865 2.224-2.234 3.86a1.22 1.22 0 0 0 .441 1.644 1.22 1.22 0 0 0 1.645-.441l2.828-4.899a1.22 1.22 0 0 0-.441-1.644l-4.899-2.83a1.27 1.27 0 0 0-.656-.154m-31.868.476c.981-.07 1.85.538 2.119 1.541l4.619 17.236c.307 1.148-.322 2.238-1.469 2.545l-19.168 5.137c-1.147.307-2.237-.324-2.545-1.47l-4.619-17.235c-.307-1.147.324-2.24 1.47-2.547l19.167-5.135q.215-.057.426-.072m-500.987 1.682-5.795 1.553.518 1.931 5.795-1.553zm105.575.984a6 6 0 0 0-1.811.2l-19.168 5.136c-3.222.864-5.16 4.221-4.297 7.443l4.617 17.237c.864 3.222 4.223 5.162 7.446 4.299l19.168-5.137c3.222-.863 5.16-4.221 4.297-7.443l-4.62-17.237c-.701-2.618-3.048-4.389-5.632-4.498m229.4.188a1.3 1.3 0 0 0-.227.027 1.24 1.24 0 0 0-.761.568 1.22 1.22 0 0 0 .44 1.645l3.864 2.225-2.234 3.857a1.22 1.22 0 0 0 .441 1.645 1.22 1.22 0 0 0 1.645-.44l2.828-4.9a1.22 1.22 0 0 0-.441-1.645l-4.899-2.828a1.27 1.27 0 0 0-.656-.154m-31.87.474c.982-.07 1.851.54 2.12 1.543l4.62 17.235c.306 1.147-.323 2.237-1.47 2.545l-19.168 5.136c-1.147.308-2.237-.321-2.545-1.468l-4.619-17.237c-.307-1.147.322-2.237 1.47-2.545l19.167-5.136q.215-.058.426-.073m244.175.791-5.797 1.553.517 1.932 5.797-1.553zm105.572.985a6 6 0 0 0-1.809.199l-19.168 5.137c-3.222.863-5.162 4.22-4.298 7.443l4.619 17.236c.863 3.223 4.22 5.16 7.443 4.297l19.168-5.135c3.222-.863 5.162-4.223 4.299-7.445l-4.62-17.234c-.7-2.618-3.05-4.39-5.634-4.498m-515.758 1.078a1.3 1.3 0 0 0-.226.027 1.24 1.24 0 0 0-.762.568 1.22 1.22 0 0 0 .44 1.645l3.863 2.225-2.233 3.857a1.223 1.223 0 0 0 .44 1.647 1.224 1.224 0 0 0 1.646-.442l2.828-4.898a1.224 1.224 0 0 0-.441-1.647l-4.899-2.828a1.27 1.27 0 0 0-.656-.154m-31.869.476c.981-.07 1.85.538 2.12 1.541l4.618 17.237c.308 1.147-.323 2.237-1.47 2.545l-19.166 5.134c-1.148.308-2.238-.321-2.545-1.468l-4.62-17.237c-.307-1.147.322-2.237 1.47-2.545l19.167-5.134q.216-.058.426-.073m244.172.79-5.795 1.552.518 1.932 5.796-1.553zm105.574.984a6 6 0 0 0-1.809.199l-19.167 5.137c-3.223.863-5.163 4.22-4.3 7.443l4.62 17.236c.863 3.223 4.22 5.163 7.443 4.3l19.168-5.137c3.222-.864 5.162-4.222 4.299-7.444l-4.62-17.236c-.7-2.618-3.05-4.39-5.634-4.498m228.961.373c-.209.106-.428.209-.549.41a1.22 1.22 0 0 0 .442 1.645l.107.062Zm-31.428.289c.982-.07 1.85.54 2.12 1.543l4.619 17.234c.307 1.147-.324 2.238-1.471 2.545l-19.168 5.137c-1.147.307-2.238-.322-2.545-1.469l-4.617-17.236c-.308-1.147.321-2.238 1.469-2.545l19.167-5.137q.216-.057.426-.072m-500.988 1.682-5.795 1.552.518 1.934 5.795-1.555zm105.574.984a6 6 0 0 0-1.808.201l-19.168 5.135c-3.223.863-5.163 4.223-4.3 7.445l4.62 17.235c.863 3.222 4.221 5.162 7.443 4.298l19.168-5.136c3.223-.864 5.163-4.221 4.3-7.444l-4.62-17.236c-.702-2.618-3.05-4.39-5.635-4.498m229.4.187a1.3 1.3 0 0 0-.226.028 1.24 1.24 0 0 0-.762.568 1.22 1.22 0 0 0 .442 1.645l3.863 2.224-2.234 3.858a1.224 1.224 0 0 0 .441 1.646 1.22 1.22 0 0 0 1.645-.441l2.828-4.899a1.223 1.223 0 0 0-.44-1.646l-4.9-2.828a1.27 1.27 0 0 0-.656-.155m-31.867.477c.982-.07 1.85.537 2.12 1.541l4.617 17.236c.307 1.147-.322 2.238-1.469 2.545l-19.168 5.135c-1.147.307-2.238-.322-2.545-1.469l-4.617-17.236c-.307-1.147.322-2.238 1.469-2.545l19.168-5.135q.215-.057.425-.072M0 206.301v5.332c.52-1.21.743-2.559.379-3.918zm95.277 1.199a6 6 0 0 0-1.81.2L74.3 212.835c-3.222.863-5.162 4.221-4.299 7.443l4.62 17.237c.862 3.222 4.22 5.16 7.442 4.297l19.168-5.135c3.223-.864 5.16-4.223 4.297-7.446l-4.617-17.234c-.701-2.618-3.05-4.39-5.635-4.498m229.4.186a1.3 1.3 0 0 0-.226.027 1.24 1.24 0 0 0-.762.568 1.224 1.224 0 0 0 .442 1.647l3.863 2.222-2.234 3.86a1.22 1.22 0 0 0 .441 1.644 1.22 1.22 0 0 0 1.645-.441l2.828-4.899a1.22 1.22 0 0 0-.44-1.644l-4.9-2.828c-.2-.11-.428-.164-.656-.156m-31.866.476c.981-.07 1.85.537 2.119 1.541l4.617 17.236c.307 1.147-.322 2.238-1.469 2.545l-19.168 5.137c-1.147.307-2.237-.324-2.545-1.47l-4.619-17.235c-.307-1.147.324-2.238 1.47-2.545l19.169-5.137q.215-.057.426-.072m244.171.79-5.794 1.552.517 1.934 5.795-1.553zm105.575.984a6 6 0 0 0-1.81.2l-19.169 5.135c-3.222.864-5.16 4.224-4.297 7.446l4.617 17.234c.864 3.222 4.223 5.162 7.446 4.299l19.168-5.137c3.222-.863 5.16-4.22 4.297-7.443l-4.618-17.236c-.701-2.618-3.05-4.39-5.634-4.498m-515.76 1.08a1.3 1.3 0 0 0-.227.027 1.24 1.24 0 0 0-.761.568 1.22 1.22 0 0 0 .441 1.645l3.863 2.224-2.234 3.858a1.22 1.22 0 0 0 .441 1.644 1.22 1.22 0 0 0 1.645-.44l2.828-4.9a1.22 1.22 0 0 0-.44-1.644l-4.9-2.828a1.27 1.27 0 0 0-.656-.154m-31.867.474c.981-.07 1.85.54 2.119 1.543l4.617 17.235c.307 1.147-.322 2.237-1.469 2.545l-19.168 5.136c-1.147.308-2.237-.321-2.545-1.469l-4.619-17.236c-.307-1.147.324-2.237 1.47-2.545l19.169-5.137q.215-.057.426-.072m244.172.791-5.795 1.553.517 1.932 5.795-1.553zm105.574.985a6 6 0 0 0-1.81.199l-19.169 5.137c-3.222.863-5.16 4.22-4.297 7.443l4.618 17.236c.863 3.223 4.223 5.16 7.445 4.297l19.168-5.135c3.222-.863 5.16-4.223 4.297-7.445l-4.62-17.234c-.7-2.618-3.048-4.39-5.632-4.498m229.4.185a1.3 1.3 0 0 0-.226.028 1.24 1.24 0 0 0-.762.568 1.223 1.223 0 0 0 .44 1.646l3.865 2.223-2.235 3.86a1.22 1.22 0 0 0 .442 1.644 1.22 1.22 0 0 0 1.644-.441l2.828-4.899a1.22 1.22 0 0 0-.441-1.644l-4.899-2.829a1.3 1.3 0 0 0-.656-.156m-31.869.477c.981-.07 1.85.537 2.12 1.54l4.618 17.237c.308 1.147-.321 2.238-1.468 2.545l-19.168 5.137c-1.147.307-2.238-.324-2.545-1.471l-4.62-17.234c-.307-1.147.322-2.238 1.47-2.545L641.78 214q.216-.057.426-.072m-500.986 1.681-5.797 1.553.517 1.932 5.797-1.553zm105.572.985a6 6 0 0 0-1.809.199l-19.168 5.137c-3.222.863-5.16 4.22-4.296 7.443l4.617 17.236c.863 3.223 4.223 5.163 7.445 4.3l19.166-5.138c3.222-.863 5.162-4.22 4.299-7.443l-4.62-17.236c-.7-2.618-3.05-4.39-5.634-4.498m229.402.187a1.3 1.3 0 0 0-.226.028 1.24 1.24 0 0 0-.762.568 1.22 1.22 0 0 0 .44 1.644l3.863 2.225-2.233 3.857a1.22 1.22 0 0 0 .44 1.645 1.223 1.223 0 0 0 1.646-.44l2.828-4.9a1.22 1.22 0 0 0-.441-1.644l-4.898-2.828a1.27 1.27 0 0 0-.657-.155m-31.869.475c.982-.07 1.85.54 2.12 1.543l4.618 17.234c.308 1.147-.323 2.238-1.47 2.545l-19.166 5.137c-1.147.307-2.238-.322-2.545-1.469l-4.62-17.236c-.307-1.147.322-2.238 1.47-2.545l19.167-5.137q.216-.057.426-.072m244.174.79-5.797 1.554.518 1.931 5.797-1.552zm-639.588 1.876a6 6 0 0 0-1.808.201l-19.168 5.135c-3.223.863-5.16 4.223-4.297 7.445l4.617 17.236c.863 3.223 4.223 5.16 7.445 4.297l19.166-5.136c3.222-.864 5.162-4.221 4.299-7.444l-4.62-17.236c-.7-2.618-3.05-4.39-5.634-4.498m229.4.187q-.113.004-.224.028a1.24 1.24 0 0 0-.762.568 1.22 1.22 0 0 0 .44 1.645l3.863 2.224-2.233 3.858a1.223 1.223 0 0 0 .44 1.646 1.224 1.224 0 0 0 1.646-.441l2.829-4.899a1.224 1.224 0 0 0-.442-1.646l-4.898-2.828a1.3 1.3 0 0 0-.659-.155m-31.867.477c.982-.07 1.85.537 2.12 1.541l4.619 17.236c.307 1.147-.324 2.238-1.471 2.545l-19.166 5.135c-1.147.307-2.24-.322-2.547-1.469l-4.617-17.236c-.308-1.147.322-2.238 1.469-2.545l19.168-5.135q.215-.057.425-.072m244.172.789-5.795 1.553.518 1.931 5.795-1.552zm105.574.984a6 6 0 0 0-1.808.2l-19.168 5.136c-3.222.864-5.162 4.221-4.299 7.444l4.62 17.236c.423 1.582 1.458 2.841 2.773 3.625h7.183l16.654-4.463c3.223-.863 5.163-4.221 4.3-7.443l-4.62-17.237c-.701-2.618-3.05-4.389-5.635-4.498m-515.76 1.078a1.3 1.3 0 0 0-.226.03 1.24 1.24 0 0 0-.762.566 1.224 1.224 0 0 0 .442 1.647l3.863 2.222-2.232 3.86a1.22 1.22 0 0 0 .44 1.644 1.22 1.22 0 0 0 1.644-.441l2.83-4.899a1.22 1.22 0 0 0-.442-1.644l-4.898-2.828a1.3 1.3 0 0 0-.658-.156m-31.867.477c.982-.07 1.85.537 2.12 1.541l4.619 17.236c.307 1.147-.324 2.238-1.471 2.545l-19.168 5.137c-1.147.307-2.238-.324-2.545-1.47l-4.617-17.235c-.307-1.147.322-2.238 1.469-2.545l19.168-5.137q.215-.057.425-.072m244.172.79-5.795 1.554.518 1.931 5.795-1.552zm105.575.984a6 6 0 0 0-1.809.2l-19.168 5.135c-3.222.864-5.162 4.223-4.299 7.446l4.62 17.236c.029.11.11.188.146.295h5.1c-.64-.205-1.189-.605-1.383-1.332l-4.62-17.234c-.307-1.147.324-2.238 1.471-2.545l19.168-5.137q.215-.057.426-.072c.981-.07 1.85.537 2.119 1.54l4.617 17.237c.308 1.147-.321 2.238-1.469 2.545L384.58 256h15.451l4.235-1.135c3.222-.863 5.16-4.22 4.296-7.443l-4.617-17.236c-.701-2.619-3.05-4.39-5.634-4.499m229.4.187a1.3 1.3 0 0 0-.227.027 1.24 1.24 0 0 0-.761.569 1.22 1.22 0 0 0 .441 1.644l3.863 2.225-2.234 3.857a1.224 1.224 0 0 0 .441 1.647 1.22 1.22 0 0 0 1.645-.442l2.828-4.898a1.22 1.22 0 0 0-.44-1.645l-4.9-2.83a1.27 1.27 0 0 0-.656-.154m-31.867.477c.981-.07 1.85.537 2.119 1.54l4.617 17.237c.307 1.147-.322 2.237-1.469 2.545l-19.168 5.135c-1.147.307-2.237-.322-2.545-1.47l-4.617-17.235c-.307-1.148.322-2.238 1.469-2.545l19.168-5.135q.215-.058.426-.072m-500.989 1.681-5.794 1.553.517 1.932 5.795-1.553zm105.575.985a6 6 0 0 0-1.81.199l-19.167 5.137c-3.222.863-5.162 4.22-4.299 7.443L178.961 256h4.14l-4.083-15.238c-.308-1.147.323-2.238 1.47-2.545l19.166-5.137q.217-.057.428-.072c.981-.07 1.85.54 2.12 1.543l4.616 17.234c.308 1.147-.321 2.24-1.468 2.547L199.123 256h10.385c1.134-1.457 1.684-3.345 1.174-5.25l-4.618-17.234c-.701-2.618-3.05-4.39-5.634-4.498m229.4.185a1.3 1.3 0 0 0-.226.03 1.24 1.24 0 0 0-.762.566 1.224 1.224 0 0 0 .441 1.646l3.863 2.225-2.234 3.857a1.22 1.22 0 0 0 .442 1.645 1.22 1.22 0 0 0 1.644-.442l2.828-4.898a1.22 1.22 0 0 0-.44-1.644l-4.9-2.829c-.2-.11-.428-.164-.656-.156m212.305 1.268-5.795 1.552.517 1.932 5.795-1.553zM2.549 232.346a6 6 0 0 0-1.81.2l-.739.198v4.14l1.773-.474q.216-.057.426-.072c.982-.07 1.85.537 2.12 1.54l4.619 17.237c.085.32-.055.59-.106.885h4.086c.04-.634.055-1.276-.117-1.92l-4.617-17.236c-.702-2.618-3.05-4.39-5.635-4.498m229.4.187a1.3 1.3 0 0 0-.226.028 1.24 1.24 0 0 0-.762.568 1.22 1.22 0 0 0 .441 1.644l3.864 2.225-2.235 3.858a1.22 1.22 0 0 0 .442 1.644 1.22 1.22 0 0 0 1.644-.44l2.828-4.898a1.224 1.224 0 0 0-.441-1.646l-4.899-2.828a1.27 1.27 0 0 0-.656-.155m212.305 1.266-5.797 1.553.52 1.931 5.794-1.553zm105.574.984a6 6 0 0 0-1.81.2l-19.168 5.136c-3.223.864-5.16 4.221-4.297 7.443l2.26 8.438h4.14l-2.537-9.473c-.307-1.147.322-2.237 1.469-2.545l19.168-5.136q.215-.058.426-.073c.98-.07 1.85.54 2.119 1.543L555.8 256h4.14l-4.48-16.719c-.702-2.618-3.048-4.389-5.633-4.498m-515.76 1.078a1.3 1.3 0 0 0-.226.028 1.24 1.24 0 0 0-.762.568 1.22 1.22 0 0 0 .44 1.645l3.865 2.224-2.235 3.86a1.22 1.22 0 0 0 .442 1.644 1.22 1.22 0 0 0 1.644-.441l2.828-4.899a1.22 1.22 0 0 0-.441-1.644l-4.898-2.83a1.27 1.27 0 0 0-.657-.155m212.305 1.266-5.797 1.553.518 1.931 5.797-1.552zm105.572.984a6 6 0 0 0-1.808.201l-19.168 5.135c-3.223.864-5.16 4.223-4.297 7.446L328.04 256h4.14l-1.646-6.143c-.307-1.147.322-2.24 1.469-2.546l19.168-5.135q.214-.058.426-.073c.981-.07 1.85.538 2.119 1.541l3.31 12.356h4.141l-3.588-13.39c-.701-2.619-3.05-4.39-5.635-4.499m229.403.188a1.3 1.3 0 0 0-.227.027 1.24 1.24 0 0 0-.762.568 1.22 1.22 0 0 0 .44 1.645l3.863 2.225-2.232 3.857a1.22 1.22 0 0 0 .44 1.645 1.223 1.223 0 0 0 1.646-.44l2.828-4.898a1.224 1.224 0 0 0-.442-1.647l-4.898-2.828a1.27 1.27 0 0 0-.656-.154m-532.856 2.158-5.797 1.553.518 1.931 5.797-1.552zm105.572.982a6 6 0 0 0-1.808.202l-19.168 5.136c-3.222.864-5.162 4.221-4.299 7.444l.477 1.779h4.142l-.754-2.814c-.307-1.147.322-2.238 1.47-2.545l19.167-5.137q.215-.057.426-.072c.981-.07 1.85.537 2.119 1.54l2.42 9.028h4.14l-2.697-10.062c-.701-2.619-3.05-4.39-5.635-4.499m229.4.188a1.3 1.3 0 0 0-.226.027 1.24 1.24 0 0 0-.761.569 1.22 1.22 0 0 0 .441 1.644l3.863 2.225-2.232 3.86a1.22 1.22 0 0 0 .44 1.644 1.224 1.224 0 0 0 1.646-.442l2.828-4.898a1.22 1.22 0 0 0-.442-1.645l-4.898-2.83c-.2-.11-.43-.162-.658-.154m212.306 1.266-5.795 1.552.517 1.932 5.795-1.553zm105.574.984a6 6 0 0 0-1.809.201l-19.168 5.135c-3.001.804-4.792 3.78-4.34 6.787h4.006l-.101-.377c-.308-1.147.323-2.24 1.47-2.547l19.168-5.135q.216-.057.426-.072c.982-.07 1.85.537 2.12 1.541l1.765 6.59h4.14l-2.042-7.625c-.702-2.618-3.05-4.39-5.635-4.498m-515.76 1.078a1.3 1.3 0 0 0-.227.03 1.24 1.24 0 0 0-.761.566 1.224 1.224 0 0 0 .441 1.646l3.863 2.225-2.234 3.857a1.22 1.22 0 0 0 .441 1.645 1.22 1.22 0 0 0 1.645-.44l2.83-4.9a1.22 1.22 0 0 0-.441-1.645l-4.899-2.828a1.3 1.3 0 0 0-.658-.156m212.305 1.268-5.795 1.552.517 1.932 5.795-1.553zm105.574.982a6 6 0 0 0-1.81.201l-19.167 5.137c-1.837.492-3.175 1.83-3.896 3.457h6.447l17.65-4.73q.217-.058.428-.073c.982-.07 1.85.54 2.12 1.543l.872 3.26h4.141l-1.15-4.297c-.702-2.618-3.05-4.389-5.635-4.498m-303.455 2.346-5.795 1.553.517 1.931 5.795-1.553zm105.574.984a6 6 0 0 0-1.81.2l-19.167 5.136c-.096.026-.163.099-.257.129h15.232l5.227-1.4q.216-.058.427-.073c.953-.067 1.778.521 2.073 1.473h4.17l-.26-.967c-.702-2.618-3.05-4.389-5.635-4.498m229.4.186a1.3 1.3 0 0 0-.226.029 1.24 1.24 0 0 0-.762.568 1.22 1.22 0 0 0 .442 1.645l3.863 2.224-.47.813h2.775l.375-.65a1.22 1.22 0 0 0-.44-1.645l-4.9-2.828c-.2-.11-.429-.164-.657-.156M2.127 252.879l-2.127.57V255c0 .184.108.321.193.469l2.452-.658zm105.574.984a6 6 0 0 0-1.81.201L98.666 256h13.328c-1.093-1.245-2.618-2.066-4.293-2.137m229.4.188a1.3 1.3 0 0 0-.226.027 1.24 1.24 0 0 0-.762.568c-.26.459-.11.976.221 1.354h4.533l-3.11-1.795a1.27 1.27 0 0 0-.655-.154m212.305 1.265-2.552.684h2.736z" style="fill:url(#d)"/><path d="M246.155 79.955c-1.824 0-3.616.481-5.195 1.393l-32.61 18.826a10.39 10.39 0 0 0-5.195 9v37.653c0 3.712 1.98 7.143 5.195 9l32.61 18.826a10.39 10.39 0 0 0 10.39 0l32.61-18.826a10.39 10.39 0 0 0 5.195-9v-37.653c0-3.712-1.98-7.143-5.195-9l-32.61-18.826a10.4 10.4 0 0 0-5.195-1.393" style="fill:#f0e2d1"/><path d="M245.553 83.555c-.398.07-.78.21-1.13.412l-31.536 18.207a1.155 1.155 0 0 0 0 2l31.536 18.206a3.46 3.46 0 0 0 3.464 0l31.536-18.207c.77-.445.77-1.556 0-2l-31.536-18.206a3.46 3.46 0 0 0-2.334-.412m-37.443 27.412a1.155 1.155 0 0 0-.955 1.137v36.414c0 1.237.66 2.38 1.732 3l31.536 18.207a1.155 1.155 0 0 0 1.732-1V132.31c0-1.238-.66-2.382-1.732-3l-31.536-18.206a1.16 1.16 0 0 0-.777-.137m76.09 0a1.16 1.16 0 0 0-.777.137l-31.536 18.206a3.46 3.46 0 0 0-1.732 3v36.414c0 .889.963 1.444 1.732 1l31.536-18.207a3.46 3.46 0 0 0 1.732-3v-36.413c0-.561-.403-1.04-.955-1.137" style="fill:#4f433c"/><path d="m256.816 141.524 6.68-1.218-6.68 6.563v3.91l10.23-10.818v-3.342l-10.23.994zm21.679 1.691v-3.193l-10.675 6.163v3.194zm-64.679-14.208 6.68 6.495-6.68-1.15v3.91l10.23.995v-3.342l-10.23-10.818zm21.679 26.725v-3.194l-10.675-6.163v3.193zm-4.638-48.874 8.965-2.537-4.336 5.21 3.386 1.955 5.977-8.362-2.895-1.672-14.484 3.45zm33.984-5.412-2.766-1.597-10.675 6.163 2.765 1.597zm46.314 25.686v.493c0 7.36 3.609 12.843 9.89 12.843 2.766 0 4.852-1.171 6.399-3.14l.351 2.672h6.399v-36h-7.125v12.867c-1.5-1.711-3.47-2.695-5.977-2.695-6.351 0-9.937 5.25-9.937 12.96m7.078.493v-.493c0-4.078 1.265-7.218 4.664-7.218 2.015 0 3.375.867 4.172 2.46v9.868c-.797 1.547-2.157 2.484-4.22 2.484-3.444 0-4.616-3.14-4.616-7.101m21.776-19.524c0 2.11 1.57 3.633 3.961 3.633s3.938-1.523 3.938-3.633-1.547-3.633-3.938-3.633-3.96 1.524-3.96 3.633zM347.533 140v-25.36h-7.102V140Zm19.807-7.078c0 1.523-1.289 2.554-3.726 2.554-2.414 0-4.383-1.054-4.5-3.61h-6.703c0 4.126 3.867 8.602 11.039 8.602 6.562 0 10.781-3.328 10.781-7.804 0-5.133-4.219-6.961-9.633-8.016-3.398-.633-4.593-1.453-4.593-2.883 0-1.5 1.312-2.625 3.398-2.625 2.555 0 3.68 1.336 3.68 3.235h7.078c0-4.782-4.078-8.203-10.735-8.203-6.398 0-10.195 3.703-10.195 7.945 0 4.406 3.867 6.633 9 7.734 4.149.89 5.11 1.688 5.11 3.07zm24.59-13.125v-5.157h-4.29v-6.258h-7.078v6.258h-3.609v5.157h3.61v13.078c0 5.437 2.859 7.593 7.43 7.593 1.687 0 3-.234 4.17-.632l.024-5.344c-.468.094-1.148.164-1.968.164-1.782 0-2.579-.516-2.579-2.578v-12.281ZM403.418 140v-16.43c.75-1.617 2.343-2.46 4.92-2.46.728 0 1.806.116 2.485.187l.094-6.82c-.492-.188-1.406-.305-2.11-.305-2.46 0-4.335 1.312-5.577 3.492l-.235-3.024h-6.656V140Zm10.174-12.915v.493c0 7.383 4.336 12.89 12.094 12.89s12.047-5.507 12.047-12.89v-.492c0-7.383-4.29-12.914-12.094-12.914-7.711 0-12.047 5.53-12.047 12.914zm7.102.493v-.492c0-3.891 1.289-7.22 4.945-7.22 3.727 0 5.016 3.329 5.016 7.22v.492c0 4.008-1.313 7.195-4.97 7.195-3.702 0-4.991-3.187-4.991-7.195m43.456 0v-.492c0-7.875-3.54-12.914-9.727-12.914-3.656 0-6.234 1.546-7.922 4.125V104h-2.812v36h2.625l.14-3.493c1.665 2.461 4.313 3.961 8.016 3.961 6.14 0 9.68-5.32 9.68-12.89m-2.836-.492v.492c0 5.906-2.273 10.453-7.383 10.453-3.89 0-6.258-2.11-7.43-4.781v-11.485c1.055-2.648 3.164-5.156 7.383-5.156 5.25 0 7.43 4.57 7.43 10.477m8.277-.141v.773c0 7.383 4.476 12.75 11.343 12.75 6.844 0 11.297-5.367 11.297-12.75v-.773c0-7.383-4.453-12.773-11.344-12.773-6.82 0-11.296 5.39-11.296 12.773m2.812.773v-.773c0-5.46 3-10.406 8.484-10.406 5.508 0 8.532 4.945 8.532 10.406v.773c0 5.555-3.024 10.383-8.485 10.383-5.531 0-8.531-4.828-8.531-10.383m33.894-2.813-6.82-10.265h-3.305l8.601 12.422L495.797 140h3.328l7.195-10.735L513.562 140h3.282l-8.954-12.938 8.602-12.422h-3.328z" style="fill:#f0e2d1"/></svg>