<?xml version="1.0" encoding="UTF-8"?>
<svg height="128px" viewBox="0 0 128 128" width="128px" xmlns="http://www.w3.org/2000/svg" xmlns:xlink="http://www.w3.org/1999/xlink">
    <linearGradient id="a" gradientUnits="userSpaceOnUse" x1="11.999989" x2="115.999989" y1="64" y2="64">
        <stop offset="0" stop-color="#3d3846"/>
        <stop offset="0.05" stop-color="#77767b"/>
        <stop offset="0.1" stop-color="#5e5c64"/>
        <stop offset="0.899999" stop-color="#504e56"/>
        <stop offset="0.95" stop-color="#77767b"/>
        <stop offset="1" stop-color="#3d3846"/>
    </linearGradient>
    <linearGradient id="b" gradientUnits="userSpaceOnUse" x1="12" x2="112.041023" y1="60" y2="80.988281">
        <stop offset="0" stop-color="#77767b"/>
        <stop offset="0.384443" stop-color="#9a9996"/>
        <stop offset="0.720567" stop-color="#77767b"/>
        <stop offset="1" stop-color="#68666f"/>
    </linearGradient>
    <path d="m 20 22 h 88 c 4.417969 0 8 3.582031 8 8 v 78 c 0 4.417969 -3.582031 8 -8 8 h -88 c -4.417969 0 -8 -3.582031 -8 -8 v -78 c 0 -4.417969 3.582031 -8 8 -8 z m 0 0" fill="url(#a)"/>
    <path d="m 20 12 h 88 c 4.417969 0 8 3.582031 8 8 v 80 c 0 4.417969 -3.582031 8 -8 8 h -88 c -4.417969 0 -8 -3.582031 -8 -8 v -80 c 0 -4.417969 3.582031 -8 8 -8 z m 0 0" fill="url(#b)"/>
    <path d="m 20 14 h 88 c 3.3125 0 6 2.6875 6 6 v 80 c 0 3.3125 -2.6875 6 -6 6 h -88 c -3.3125 0 -6 -2.6875 -6 -6 v -80 c 0 -3.3125 2.6875 -6 6 -6 z m 0 0" fill="#241f31"/>
    <path d="m 46.011719 40.886719 l -14.011719 -7.613281 v 4.726562 l 9.710938 4.628906 v 0.144532 l -9.710938 5.226562 v 4.726562 l 14.011719 -8.210937 z m 0 0" fill="#62c9ea"/>
    <path d="m 50 56 v 4 h 16 v -4 z m 0 0" fill="#62c9ea"/>
    <path d="m 124 100 c 0 13.253906 -10.746094 24 -24 24 s -24 -10.746094 -24 -24 s 10.746094 -24 24 -24 s 24 10.746094 24 24 z m 0 0" fill="#312a25"/>
    <path d="m 124 98 c 0 13.253906 -10.746094 24 -24 24 s -24 -10.746094 -24 -24 s 10.746094 -24 24 -24 s 24 10.746094 24 24 z m 0 0" fill="#4f433c"/>
    <g fill="#f0e2d1">
        <path d="m 100 80.121094 c -0.679688 0.003906 -1.34375 0.179687 -1.933594 0.519531 l -12.132812 7.003906 c -1.195313 0.691407 -1.933594 1.96875 -1.933594 3.351563 v 14.007812 c 0 1.382813 0.738281 2.660156 1.933594 3.351563 l 12.132812 7.003906 c 1.195313 0.691406 2.671875 0.691406 3.867188 0 l 12.132812 -7.003906 c 1.195313 -0.691407 1.933594 -1.96875 1.933594 -3.351563 v -14.007812 c 0 -1.382813 -0.738281 -2.660156 -1.933594 -3.351563 l -12.132812 -7.003906 c -0.589844 -0.339844 -1.253906 -0.515625 -1.933594 -0.519531 z m -0.222656 1.339844 c 0.296875 -0.050782 0.605468 0.003906 0.867187 0.15625 l 11.734375 6.773437 c 0.132813 0.078125 0.214844 0.21875 0.214844 0.371094 c 0 0.152343 -0.082031 0.296875 -0.214844 0.371093 l -11.734375 6.777344 c -0.398437 0.230469 -0.890625 0.230469 -1.289062 0 l -11.734375 -6.777344 c -0.132813 -0.074218 -0.214844 -0.21875 -0.214844 -0.371093 c 0 -0.152344 0.082031 -0.292969 0.214844 -0.371094 l 11.734375 -6.773437 c 0.128906 -0.078126 0.273437 -0.128907 0.421875 -0.15625 z m -13.933594 10.203124 c 0.097656 -0.019531 0.203125 0 0.289062 0.050782 l 11.734376 6.773437 c 0.398437 0.230469 0.644531 0.65625 0.644531 1.117188 v 13.546875 c 0 0.15625 -0.082031 0.296875 -0.214844 0.375 c -0.132813 0.074218 -0.296875 0.074218 -0.429687 0 l -11.734376 -6.777344 c -0.398437 -0.230469 -0.644531 -0.65625 -0.644531 -1.117188 v -13.546874 c 0 -0.210938 0.148438 -0.386719 0.355469 -0.421876 z m 28.3125 0 c 0.207031 0.035157 0.355469 0.210938 0.355469 0.421876 v 13.546874 c 0 0.460938 -0.246094 0.886719 -0.644531 1.117188 l -11.734376 6.777344 c -0.132812 0.074218 -0.296874 0.074218 -0.429687 0 c -0.132813 -0.078125 -0.214844 -0.21875 -0.214844 -0.375 v -13.546875 c 0 -0.460938 0.246094 -0.886719 0.644531 -1.117188 l 11.734376 -6.773437 c 0.085937 -0.050782 0.191406 -0.070313 0.289062 -0.050782 z m 0 0"/>
        <path d="m 103.964844 103.03125 l 2.488281 -0.453125 l -2.488281 2.441406 v 1.457031 l 3.808594 -4.027343 v -1.242188 l -3.808594 0.371094 z m 0 0"/>
        <path d="m 112.035156 103.660156 v -1.1875 l -3.972656 2.292969 v 1.1875 z m 0 0"/>
        <path d="m 87.964844 98.375 l 2.488281 2.417969 l -2.488281 -0.429688 v 1.457031 l 3.808594 0.367188 v -1.242188 l -3.808594 -4.027343 z m 0 0"/>
        <path d="m 96.035156 108.320312 v -1.191406 l -3.972656 -2.292968 v 1.191406 z m 0 0"/>
        <path d="m 94.308594 90.132812 l 3.335937 -0.945312 l -1.613281 1.941406 l 1.257812 0.726563 l 2.226563 -3.113281 l -1.078125 -0.621094 l -5.390625 1.285156 z m 0 0"/>
        <path d="m 106.953125 88.121094 l -1.03125 -0.597656 l -3.96875 2.296874 l 1.027344 0.59375 z m 0 0"/>
    </g>
</svg>
