<svg xmlns="http://www.w3.org/2000/svg" width="600" height="400">
    <path d="M0 0h600v400H0z" style="fill:#4f433c;fill-opacity:1"/>
    <g style="fill:#f0e2d1;fill-opacity:1">
        <path d="M-132 51.781a10.392 10.392 0 0 0-5.195 1.393L-169.805 72A10.392 10.392 0 0 0-175 81v37.652a10.392 10.392 0 0 0 5.195 9l32.61 18.827a10.392 10.392 0 0 0 10.39 0l32.61-18.827a10.392 10.392 0 0 0 5.195-9V81a10.392 10.392 0 0 0-5.195-9l-32.61-18.826A10.392 10.392 0 0 0-132 51.78Zm-.602 3.6a3.464 3.464 0 0 1 2.334.412L-98.732 74a1.155 1.155 0 0 1 0 2l-31.536 18.207a3.464 3.464 0 0 1-3.464 0L-165.268 76a1.155 1.155 0 0 1 0-2l31.536-18.207a3.464 3.464 0 0 1 1.13-.412zm-37.443 27.412a1.155 1.155 0 0 1 .777.137l31.536 18.207a3.464 3.464 0 0 1 1.732 3v36.414a1.155 1.155 0 0 1-1.732 1l-31.536-18.207a3.464 3.464 0 0 1-1.732-3V83.93a1.155 1.155 0 0 1 .955-1.137zm76.09 0A1.155 1.155 0 0 1-93 83.93v36.414a3.464 3.464 0 0 1-1.732 3l-31.536 18.207a1.155 1.155 0 0 1-1.732-1v-36.414a3.464 3.464 0 0 1 1.732-3l31.536-18.207a1.155 1.155 0 0 1 .777-.137z" style="fill:#f0e2d1;fill-opacity:1;stroke-width:19.8608;stroke-linecap:round;stroke-linejoin:round" transform="translate(432 84.219)"/>
        <g style="font-weight:700;font-size:24px;font-family:Heebo;-inkscape-font-specification:&quot;Heebo Bold&quot;;text-align:center;text-anchor:middle;white-space:pre;shape-inside:url(#rect2729);fill:#f0e2d1;fill-opacity:1;stroke-width:12;stroke-linecap:round;stroke-linejoin:round" transform="translate(371.314 -66.583)">
            <path d="m-60.654 264.152 6.68-1.218-6.68 6.563v3.91l10.23-10.818v-3.342l-10.23.994zm21.679 1.691v-3.193l-10.675 6.163v3.194z" aria-label="&gt;_" style="fill:#f0e2d1;fill-opacity:1"/>
        </g>
        <g style="font-weight:700;font-size:24px;font-family:Heebo;-inkscape-font-specification:&quot;Heebo Bold&quot;;text-align:center;text-anchor:middle;white-space:pre;shape-inside:url(#rect2729);fill:#f0e2d1;fill-opacity:1;stroke-width:12;stroke-linecap:round;stroke-linejoin:round" transform="translate(328.314 -66.583)">
            <path d="m-60.654 251.635 6.68 6.495-6.68-1.15v3.91l10.23.995v-3.342l-10.23-10.818Zm21.679 26.725v-3.194l-10.675-6.163v3.193z" aria-label="&gt;_" style="fill:#f0e2d1;fill-opacity:1"/>
        </g>
        <g style="font-weight:700;font-size:24px;font-family:Heebo;-inkscape-font-specification:&quot;Heebo Bold&quot;;text-align:center;text-anchor:middle;white-space:pre;shape-inside:url(#rect2729);fill:#f0e2d1;fill-opacity:1;stroke-width:12;stroke-linecap:round;stroke-linejoin:round" transform="translate(349.814 -103.823)">
            <path d="m-65.113 266.726 8.965-2.537-4.336 5.21 3.386 1.955 5.977-8.362-2.895-1.672-14.484 3.45zm33.984-5.412-2.766-1.597-10.675 6.163 2.765 1.597z" aria-label="&gt;_" style="fill:#f0e2d1;fill-opacity:1"/>
        </g>
    </g>
    <g aria-label="distrobox" style="font-weight:700;font-size:24px;font-family:Heebo;-inkscape-font-specification:&quot;Heebo Bold&quot;;letter-spacing:.4px;white-space:pre;shape-inside:url(#rect833);fill:#f0e2d1;stroke-width:12;stroke-linecap:round;stroke-linejoin:round;fill-opacity:1" transform="translate(-57.16 68.967)">
        <path d="M305.738 188.689v.246c0 3.68 1.805 6.422 4.946 6.422 1.382 0 2.425-.586 3.199-1.57l.176 1.335h3.199v-18h-3.563v6.434c-.75-.856-1.734-1.348-2.988-1.348-3.176 0-4.969 2.625-4.969 6.48zm3.54.246v-.246c0-2.04.632-3.61 2.331-3.61 1.008 0 1.688.434 2.086 1.23v4.934c-.398.774-1.078 1.243-2.11 1.243-1.722 0-2.308-1.57-2.308-3.551zm10.888-9.762c0 1.055.785 1.817 1.98 1.817 1.195 0 1.969-.762 1.969-1.817s-.774-1.816-1.969-1.816-1.98.761-1.98 1.816zm3.761 15.95v-12.68h-3.55v12.68zm9.904-3.54c0 .762-.644 1.278-1.863 1.278-1.207 0-2.191-.528-2.25-1.805h-3.352c0 2.062 1.934 4.3 5.52 4.3 3.281 0 5.39-1.663 5.39-3.902 0-2.566-2.109-3.48-4.816-4.007-1.7-.317-2.297-.727-2.297-1.442 0-.75.657-1.312 1.7-1.312 1.277 0 1.84.668 1.84 1.617h3.538c0-2.39-2.039-4.102-5.367-4.102-3.199 0-5.097 1.852-5.097 3.973 0 2.203 1.933 3.316 4.5 3.867 2.074.445 2.554.844 2.554 1.535zm12.295-6.563v-2.577h-2.145v-3.13h-3.539v3.13h-1.804v2.578h1.804v6.539c0 2.719 1.43 3.797 3.715 3.797.844 0 1.5-.117 2.086-.317l.012-2.672a5.225 5.225 0 0 1-.985.082c-.89 0-1.289-.257-1.289-1.289v-6.14zm5.744 10.102v-8.215c.375-.808 1.171-1.23 2.46-1.23.364 0 .903.059 1.243.094l.047-3.41c-.247-.094-.704-.153-1.055-.153-1.23 0-2.168.656-2.79 1.746l-.116-1.511h-3.329v12.68zm5.087-6.457v.246c0 3.692 2.168 6.446 6.047 6.446 3.879 0 6.023-2.754 6.023-6.446v-.246c0-3.691-2.144-6.457-6.047-6.457-3.855 0-6.023 2.766-6.023 6.457zm3.55.246v-.246c0-1.945.645-3.61 2.473-3.61 1.864 0 2.508 1.665 2.508 3.61v.246c0 2.004-.656 3.598-2.484 3.598-1.852 0-2.496-1.594-2.496-3.598z" style="fill:#f0e2d1;fill-opacity:1"/>
        <path d="M382.236 188.911v-.246c0-3.937-1.77-6.457-4.863-6.457-1.828 0-3.118.774-3.961 2.063v-7.149h-1.407v18h1.313l.07-1.746c.832 1.23 2.157 1.98 4.008 1.98 3.07 0 4.84-2.66 4.84-6.445zm-1.418-.246v.246c0 2.954-1.137 5.227-3.691 5.227-1.946 0-3.13-1.055-3.715-2.39v-5.743c.527-1.324 1.582-2.578 3.691-2.578 2.625 0 3.715 2.285 3.715 5.238zm4.138-.07v.387c0 3.691 2.239 6.375 5.672 6.375 3.422 0 5.649-2.684 5.649-6.375v-.387c0-3.691-2.227-6.387-5.672-6.387-3.41 0-5.649 2.696-5.649 6.387zm1.406.387v-.387c0-2.73 1.5-5.203 4.243-5.203 2.754 0 4.265 2.473 4.265 5.203v.387c0 2.777-1.511 5.191-4.242 5.191-2.765 0-4.265-2.414-4.265-5.191zm16.948-1.407-3.41-5.132h-1.653l4.3 6.21-4.488 6.47h1.664l3.598-5.368 3.621 5.367h1.64l-4.476-6.468 4.301-6.211h-1.664z" style="font-weight:300;-inkscape-font-specification:&quot;Heebo Light&quot;;fill:#f0e2d1;fill-opacity:1"/>
    </g>
</svg>
