<?xml version="1.0" encoding="UTF-8" standalone="no"?>
<svg
   sodipodi:docname="card.svg"
   inkscape:version="1.2.2 (b0a8486541, 2022-12-01)"
   id="svg10448"
   version="1.1"
   viewBox="0 0 600 400.00003"
   height="400.00003"
   width="600"
   inkscape:export-filename="card.png"
   inkscape:export-xdpi="192"
   inkscape:export-ydpi="192"
   xmlns:inkscape="http://www.inkscape.org/namespaces/inkscape"
   xmlns:sodipodi="http://sodipodi.sourceforge.net/DTD/sodipodi-0.dtd"
   xmlns="http://www.w3.org/2000/svg"
   xmlns:svg="http://www.w3.org/2000/svg"
   xmlns:rdf="http://www.w3.org/1999/02/22-rdf-syntax-ns#"
   xmlns:cc="http://creativecommons.org/ns#"
   xmlns:dc="http://purl.org/dc/elements/1.1/">
  <defs
     id="defs10442">
    <filter
       id="filter62647-5-1-29"
       inkscape:label="Better Shadow"
       style="color-interpolation-filters:sRGB"
       x="-0.14328897"
       y="-0.089033969"
       width="1.2865781"
       height="1.3395338">
      <feFlood
         id="feFlood62637-04-2-75"
         result="flood"
         flood-color="rgb(0,0,0)"
         flood-opacity="0.180392" />
      <feComposite
         id="feComposite62639-87-2-64"
         result="composite1"
         operator="in"
         in2="SourceGraphic"
         in="flood" />
      <feGaussianBlur
         id="feGaussianBlur62641-1-7-63"
         result="blur"
         stdDeviation="7"
         in="composite1" />
      <feOffset
         id="feOffset62643-7-7-7"
         result="offset"
         dy="6"
         dx="0" />
      <feComposite
         id="feComposite62645-2-9-9"
         result="fbSourceGraphic"
         operator="over"
         in2="offset"
         in="SourceGraphic" />
      <feColorMatrix
         id="feColorMatrix62793-7-1-7"
         values="0 0 0 -1 0 0 0 0 -1 0 0 0 0 -1 0 0 0 0 1 0"
         in="fbSourceGraphic"
         result="fbSourceGraphicAlpha" />
      <feFlood
         in="fbSourceGraphic"
         result="flood"
         flood-color="rgb(0,0,0)"
         flood-opacity="0.34902"
         id="feFlood62795-2-4-49" />
      <feComposite
         result="composite1"
         operator="in"
         in="flood"
         id="feComposite62797-26-04-17"
         in2="fbSourceGraphic" />
      <feGaussianBlur
         result="blur"
         stdDeviation="3.5"
         in="composite1"
         id="feGaussianBlur62799-1-7-0" />
      <feOffset
         result="offset"
         dy="3"
         dx="0"
         id="feOffset62801-06-8-6" />
      <feComposite
         result="composite2"
         operator="over"
         in="fbSourceGraphic"
         id="feComposite62803-1-7-0"
         in2="offset" />
    </filter>
    <rect
       x="460"
       y="260"
       width="301.57376"
       height="155.60439"
       id="rect2383" />
    <inkscape:path-effect
       effect="fillet_chamfer"
       id="path-effect2102"
       is_visible="true"
       lpeversion="1"
       nodesatellites_param="F,0,0,1,0,12,0,1 @ F,0,0,1,0,12,0,1 @ F,0,0,1,0,12,0,1 @ F,0,0,1,0,12,0,1 @ F,0,0,1,0,12,0,1 @ F,0,0,1,0,12,0,1"
       unit="px"
       method="auto"
       mode="F"
       radius="12"
       chamfer_steps="1"
       flexible="false"
       use_knot_distance="true"
       apply_no_radius="true"
       apply_with_radius="true"
       only_selected="false"
       hide_knots="false" />
    <inkscape:path-effect
       effect="fillet_chamfer"
       id="path-effect2106"
       is_visible="true"
       lpeversion="1"
       nodesatellites_param="F,0,0,1,0,6,0,1 @ F,0,0,1,0,6,0,1 @ F,0,0,1,0,6,0,1 @ F,0,0,1,0,6,0,1"
       unit="px"
       method="auto"
       mode="F"
       radius="6"
       chamfer_steps="1"
       flexible="false"
       use_knot_distance="true"
       apply_no_radius="true"
       apply_with_radius="true"
       only_selected="false"
       hide_knots="false" />
    <inkscape:path-effect
       effect="fillet_chamfer"
       id="path-effect2110"
       is_visible="true"
       lpeversion="1"
       nodesatellites_param="F,0,0,1,0,6,0,1 @ F,0,0,1,0,6,0,1 @ F,0,0,1,0,6,0,1 @ F,0,0,1,0,6,0,1"
       unit="px"
       method="auto"
       mode="F"
       radius="6"
       chamfer_steps="1"
       flexible="false"
       use_knot_distance="true"
       apply_no_radius="true"
       apply_with_radius="true"
       only_selected="false"
       hide_knots="false" />
    <inkscape:path-effect
       effect="fillet_chamfer"
       id="path-effect2114"
       is_visible="true"
       lpeversion="1"
       nodesatellites_param="F,0,0,1,0,6,0,1 @ F,0,0,1,0,6,0,1 @ F,0,0,1,0,6,0,1 @ F,0,0,1,0,6,0,1"
       unit="px"
       method="auto"
       mode="F"
       radius="6"
       chamfer_steps="1"
       flexible="false"
       use_knot_distance="true"
       apply_no_radius="true"
       apply_with_radius="true"
       only_selected="false"
       hide_knots="false" />
  </defs>
  <sodipodi:namedview
     inkscape:snap-bbox-midpoints="true"
     inkscape:snap-bbox-edge-midpoints="true"
     inkscape:bbox-nodes="true"
     inkscape:bbox-paths="true"
     inkscape:snap-bbox="true"
     inkscape:window-maximized="1"
     inkscape:window-y="0"
     inkscape:window-x="0"
     inkscape:window-height="731"
     inkscape:window-width="1280"
     units="px"
     showgrid="false"
     inkscape:document-rotation="0"
     inkscape:current-layer="layer1"
     inkscape:document-units="px"
     inkscape:cy="200"
     inkscape:cx="288.57143"
     inkscape:zoom="1.05"
     inkscape:pageshadow="2"
     inkscape:pageopacity="0"
     borderopacity="1"
     bordercolor="#000000"
     pagecolor="#ffffff"
     id="base"
     inkscape:snap-page="true"
     inkscape:snap-text-baseline="true"
     inkscape:snap-center="true"
     inkscape:snap-object-midpoints="true"
     inkscape:pagecheckerboard="1"
     inkscape:showpageshadow="false"
     inkscape:deskcolor="#4d4d4d">
    <inkscape:grid
       originy="1.2031857e-13"
       originx="0"
       id="grid11077"
       type="xygrid" />
  </sodipodi:namedview>
  <metadata
     id="metadata10445">
    <rdf:RDF>
      <cc:Work
         rdf:about="">
        <dc:format>image/svg+xml</dc:format>
        <dc:type
           rdf:resource="http://purl.org/dc/dcmitype/StillImage" />
      </cc:Work>
    </rdf:RDF>
  </metadata>
  <g
     inkscape:groupmode="layer"
     id="layer1"
     inkscape:label="Layer 1">
    <rect
       y="0"
       x="0"
       height="400"
       width="600"
       id="rect965"
       inkscape:export-xdpi="192"
       inkscape:export-ydpi="192"
       style="fill:#1879de;fill-opacity:1" />
    <g
       id="g3309"
       transform="translate(432.00003,84.218768)">
      <path
         id="path2544"
         style="fill:#ffffff;fill-opacity:1;stroke-width:19.8608;stroke-linecap:round;stroke-linejoin:round"
         d="m -132,51.78125 a 10.392305,10.392305 0 0 0 -5.19531,1.392578 L -169.80469,72 A 10.392305,10.392305 0 0 0 -175,81 v 37.65234 a 10.392305,10.392305 0 0 0 5.19531,9 l 32.60938,18.82618 a 10.392306,10.392306 0 0 0 10.39062,0 l 32.609378,-18.82618 a 10.392304,10.392304 0 0 0 5.195312,-9 V 81 a 10.392305,10.392305 0 0 0 -5.195312,-9 L -126.80469,53.173828 A 10.392305,10.392305 0 0 0 -132,51.78125 Z m -0.60156,3.599609 a 3.4641406,3.4641406 0 0 1 2.33398,0.41211 L -98.732422,74 a 1.1546875,1.1546875 0 0 1 0,2 l -31.535158,18.207031 a 3.4641408,3.4641408 0 0 1 -3.46484,0 L -165.26758,76 a 1.1546875,1.1546875 0 0 1 0,-2 l 31.53516,-18.207031 a 3.4641406,3.4641406 0 0 1 1.13086,-0.41211 z m -37.44336,27.41211 a 1.154707,1.154707 0 0 1 0.77734,0.136719 l 31.53516,18.207032 a 3.4640822,3.4640822 0 0 1 1.73242,3 v 36.41406 a 1.1547068,1.1547068 0 0 1 -1.73242,1 l -31.53516,-18.20703 a 3.4640828,3.4640828 0 0 1 -1.73242,-3 V 83.929688 a 1.154707,1.154707 0 0 1 0.95508,-1.136719 z m 76.089842,0 A 1.154707,1.154707 0 0 1 -93,83.929688 v 36.414062 a 3.4640828,3.4640828 0 0 1 -1.732422,3 l -31.535158,18.20703 a 1.1547068,1.1547068 0 0 1 -1.73242,-1 v -36.41406 a 3.4640822,3.4640822 0 0 1 1.73242,-3 l 31.535158,-18.207032 a 1.154707,1.154707 0 0 1 0.777344,-0.136719 z" />
      <g
         aria-label="&gt;_"
         id="g2849"
         style="font-weight:bold;font-size:24px;font-family:Heebo;-inkscape-font-specification:'Heebo Bold';text-align:center;text-anchor:middle;white-space:pre;shape-inside:url(#rect2729);fill:#ffffff;fill-opacity:1;stroke-width:12;stroke-linecap:round;stroke-linejoin:round"
         transform="translate(-60.685547,-150.80203)">
        <path
           d="m -60.654296,264.15184 6.679689,-1.21784 -6.679689,6.56277 v 3.91061 l 10.23047,-10.81843 v -3.34227 l -10.23047,0.99456 z"
           id="path2845"
           style="fill:#ffffff;fill-opacity:1" />
        <path
           d="m -38.974608,265.84327 v -3.19343 l -10.675781,6.16359 v 3.19344 z"
           id="path2847"
           style="fill:#ffffff;fill-opacity:1" />
      </g>
      <g
         aria-label="&gt;_"
         id="g2859"
         style="font-weight:bold;font-size:24px;font-family:Heebo;-inkscape-font-specification:'Heebo Bold';text-align:center;text-anchor:middle;white-space:pre;shape-inside:url(#rect2729);fill:#ffffff;fill-opacity:1;stroke-width:12;stroke-linecap:round;stroke-linejoin:round"
         transform="translate(-103.68555,-150.80203)">
        <path
           d="m -60.654298,251.63521 6.679687,6.49511 -6.679687,-1.15018 v 3.9106 l 10.230468,0.99457 v -3.34227 L -60.654298,247.7246 Z"
           id="path2855"
           style="fill:#ffffff;fill-opacity:1" />
        <path
           d="m -38.97461,278.35991 v -3.19344 l -10.675783,-6.1636 v 3.19344 z"
           id="path2857"
           style="fill:#ffffff;fill-opacity:1" />
      </g>
      <g
         aria-label="&gt;_"
         id="g2869"
         style="font-weight:bold;font-size:24px;font-family:Heebo;-inkscape-font-specification:'Heebo Bold';text-align:center;text-anchor:middle;white-space:pre;shape-inside:url(#rect2729);fill:#ffffff;fill-opacity:1;stroke-width:12;stroke-linecap:round;stroke-linejoin:round"
         transform="translate(-82.185547,-188.04226)">
        <path
           d="m -65.113282,266.72621 8.964838,-2.53716 -4.335938,5.20963 3.38672,1.9553 5.976569,-8.36246 -2.89453,-1.67114 -14.484379,3.45053 z"
           id="path2865"
           style="fill:#ffffff;fill-opacity:1" />
        <path
           d="m -31.128904,261.31362 -2.76563,-1.59672 -10.675782,6.16359 2.76563,1.59672 z"
           id="path2867"
           style="fill:#ffffff;fill-opacity:1" />
      </g>
    </g>
    <g
       aria-label="distrobox"
       transform="translate(-57.160525,68.966678)"
       id="text831"
       style="font-weight:bold;font-size:24px;font-family:Heebo;-inkscape-font-specification:'Heebo Bold';letter-spacing:0.4px;white-space:pre;shape-inside:url(#rect833);fill:#ffffff;stroke-width:12;stroke-linecap:round;stroke-linejoin:round;fill-opacity:1">
      <path
         d="m 305.73828,188.68875 v 0.24609 c 0,3.67969 1.80469,6.42188 4.94531,6.42188 1.38282,0 2.42578,-0.58594 3.19922,-1.57032 l 0.17578,1.33594 h 3.19922 v -18 h -3.5625 v 6.43359 c -0.75,-0.85546 -1.73437,-1.34765 -2.98828,-1.34765 -3.17578,0 -4.96875,2.625 -4.96875,6.48047 z m 3.53906,0.24609 v -0.24609 c 0,-2.03907 0.63282,-3.60938 2.33203,-3.60938 1.00782,0 1.6875,0.4336 2.08594,1.23047 v 4.93359 c -0.39844,0.77344 -1.07812,1.24219 -2.10937,1.24219 -1.72266,0 -2.3086,-1.57031 -2.3086,-3.55078 z"
         id="path1236"
         style="fill:#ffffff;fill-opacity:1" />
      <path
         d="m 320.16562,179.17312 c 0,1.05469 0.78516,1.81641 1.98047,1.81641 1.19532,0 1.96875,-0.76172 1.96875,-1.81641 0,-1.05469 -0.77343,-1.8164 -1.96875,-1.8164 -1.19531,0 -1.98047,0.76171 -1.98047,1.8164 z m 3.76172,15.94922 v -12.67969 h -3.55078 v 12.67969 z"
         id="path1238"
         style="fill:#ffffff;fill-opacity:1" />
      <path
         d="m 333.83125,191.58328 c 0,0.76172 -0.64453,1.27734 -1.86328,1.27734 -1.20703,0 -2.19141,-0.52734 -2.25,-1.80469 h -3.35156 c 0,2.0625 1.93359,4.30079 5.51953,4.30079 3.28125,0 5.39062,-1.66407 5.39062,-3.90235 0,-2.5664 -2.10937,-3.48047 -4.8164,-4.00781 -1.69922,-0.31641 -2.29688,-0.72656 -2.29688,-1.44141 0,-0.75 0.65625,-1.3125 1.69922,-1.3125 1.27734,0 1.83984,0.66797 1.83984,1.61719 h 3.53907 c 0,-2.39062 -2.03907,-4.10156 -5.36719,-4.10156 -3.19922,0 -5.09766,1.85156 -5.09766,3.97265 0,2.20313 1.9336,3.31641 4.5,3.86719 2.07422,0.44531 2.55469,0.84375 2.55469,1.53516 z"
         id="path1240"
         style="fill:#ffffff;fill-opacity:1" />
      <path
         d="m 346.12578,185.02078 v -2.57813 h -2.14453 v -3.1289 h -3.53906 v 3.1289 h -1.80469 v 2.57813 h 1.80469 v 6.53906 c 0,2.71875 1.42969,3.79688 3.71484,3.79688 0.84375,0 1.5,-0.11719 2.08594,-0.31641 l 0.0117,-2.67188 c -0.23438,0.0469 -0.57422,0.082 -0.98438,0.082 -0.89062,0 -1.28906,-0.25782 -1.28906,-1.28907 v -6.14062 z"
         id="path1242"
         style="fill:#ffffff;fill-opacity:1" />
      <path
         d="m 351.86953,195.12234 v -8.21484 c 0.375,-0.8086 1.17187,-1.23047 2.46094,-1.23047 0.36328,0 0.90234,0.0586 1.24218,0.0937 l 0.0469,-3.41016 c -0.24609,-0.0937 -0.70313,-0.15234 -1.05469,-0.15234 -1.23047,0 -2.16797,0.65625 -2.78906,1.74609 l -0.11719,-1.51172 h -3.32812 v 12.67969 z"
         id="path1244"
         style="fill:#ffffff;fill-opacity:1" />
      <path
         d="m 356.95703,188.66531 v 0.24609 c 0,3.69141 2.16797,6.44532 6.04688,6.44532 3.8789,0 6.02343,-2.75391 6.02343,-6.44532 v -0.24609 c 0,-3.69141 -2.14453,-6.45703 -6.04687,-6.45703 -3.85547,0 -6.02344,2.76562 -6.02344,6.45703 z m 3.55078,0.24609 v -0.24609 c 0,-1.94531 0.64453,-3.60938 2.47266,-3.60938 1.86328,0 2.50781,1.66407 2.50781,3.60938 v 0.24609 c 0,2.00391 -0.65625,3.59766 -2.48437,3.59766 -1.85157,0 -2.4961,-1.59375 -2.4961,-3.59766 z"
         id="path1246"
         style="fill:#ffffff;fill-opacity:1" />
      <path
         d="m 382.23594,188.9114 v -0.24609 c 0,-3.9375 -1.76953,-6.45703 -4.86328,-6.45703 -1.82813,0 -3.11719,0.77344 -3.96094,2.0625 v -7.14844 h -1.40625 v 18 h 1.3125 l 0.0703,-1.74609 c 0.83203,1.23047 2.15625,1.98047 4.00782,1.98047 3.07031,0 4.83984,-2.66016 4.83984,-6.44532 z m -1.41797,-0.24609 v 0.24609 c 0,2.95313 -1.13672,5.22657 -3.69141,5.22657 -1.94531,0 -3.1289,-1.05469 -3.71484,-2.39063 v -5.74219 c 0.52734,-1.32422 1.58203,-2.57812 3.69141,-2.57812 2.625,0 3.71484,2.28515 3.71484,5.23828 z"
         style="font-weight:300;-inkscape-font-specification:'Heebo Light';fill:#ffffff;fill-opacity:1"
         id="path1248" />
      <path
         d="m 384.95625,188.595 v 0.38672 c 0,3.6914 2.23828,6.375 5.67188,6.375 3.42187,0 5.64844,-2.6836 5.64844,-6.375 V 188.595 c 0,-3.69141 -2.22657,-6.38672 -5.67188,-6.38672 -3.41016,0 -5.64844,2.69531 -5.64844,6.38672 z m 1.40625,0.38672 V 188.595 c 0,-2.73047 1.5,-5.20313 4.24219,-5.20313 2.75391,0 4.26563,2.47266 4.26563,5.20313 v 0.38672 c 0,2.77734 -1.51172,5.1914 -4.24219,5.1914 -2.76563,0 -4.26563,-2.41406 -4.26563,-5.1914 z"
         style="font-weight:300;-inkscape-font-specification:'Heebo Light';fill:#ffffff;fill-opacity:1"
         id="path1250" />
      <path
         d="m 403.30937,187.57547 -3.41015,-5.13282 h -1.65235 l 4.30078,6.21094 -4.48828,6.46875 h 1.66406 l 3.59766,-5.36719 3.62109,5.36719 h 1.64063 l -4.47656,-6.46875 4.30078,-6.21094 h -1.66406 z"
         style="font-weight:300;-inkscape-font-specification:'Heebo Light';fill:#ffffff;fill-opacity:1"
         id="path1252" />
    </g>
  </g>
</svg>
