<svg xmlns="http://www.w3.org/2000/svg" width="16" height="16">
    <path d="M8 .186a1.732 1.732 0 0 0-.865.232l-5.27 3.041A1.732 1.732 0 0 0 1 4.959v6.082a1.732 1.732 0 0 0 .865 1.5l5.27 3.041a1.732 1.732 0 0 0 1.73 0l5.27-3.041a1.732 1.732 0 0 0 .865-1.5V4.959a1.732 1.732 0 0 0-.865-1.5L8.865.418A1.732 1.732 0 0 0 8 .186zm-.121 1.003a.693.693 0 0 1 .467.082L13.5 4.246 8 7.422 2.5 4.246l5.154-2.975a.693.693 0 0 1 .225-.082zm2.857 2.485-1.834 1.06.475.274 1.834-1.059zm-3.459.277-2.488.592.582.336 1.541-.436-.746.895.582.336 1.027-1.436zm6.463.445a.693.693 0 0 1 .053.045c-.016-.016-.035-.03-.053-.045zm-11.57.088-.012.014a.693.693 0 0 1 .012-.014zm11.687.034a.693.693 0 0 1 .045.064.698.698 0 0 0-.045-.064zm.12.24a.693.693 0 0 1 .015.072.677.677 0 0 0-.015-.072zM2 5.113 7.5 8.29v6.35l-5.154-2.975a.693.693 0 0 1-.346-.6zm12 0v5.951a.693.693 0 0 1-.346.6L8.5 14.64V8.29zM2.887 7.244v.672l1.148 1.117-1.148-.199v.674l1.76.17v-.574zm8.258 1.98-1.758.17v.672l1.148-.209-1.148 1.13v.671l1.758-1.86zm1.968.585-1.836 1.06v.549l1.836-1.06zM4.78 10.9v.55l1.834 1.06v-.55zm3.09 3.907.022.004a.693.693 0 0 1-.022-.004zm.262 0a.693.693 0 0 1-.022.004l.022-.004z"/>
</svg>
