<?xml version="1.0" encoding="UTF-8" standalone="no"?>
<svg
   width="314"
   height="98"
   viewBox="0 0 314 98"
   id="systemd-logo"
   version="1.1"
   sodipodi:docname="page-logo-dark.svg"
   inkscape:version="1.2.2 (b0a8486541, 2022-12-01)"
   inkscape:export-filename="page-logo-dark.png"
   inkscape:export-xdpi="192"
   inkscape:export-ydpi="192"
   xmlns:inkscape="http://www.inkscape.org/namespaces/inkscape"
   xmlns:sodipodi="http://sodipodi.sourceforge.net/DTD/sodipodi-0.dtd"
   xmlns="http://www.w3.org/2000/svg"
   xmlns:svg="http://www.w3.org/2000/svg">
  <defs
     id="defs13" />
  <sodipodi:namedview
     id="namedview11"
     pagecolor="#000000"
     bordercolor="#ffffff"
     borderopacity="0.24705882"
     inkscape:showpageshadow="false"
     inkscape:pageopacity="0"
     inkscape:pagecheckerboard="true"
     inkscape:deskcolor="#4d4d4d"
     showgrid="false"
     inkscape:zoom="2.0063694"
     inkscape:cx="157"
     inkscape:cy="48.844444"
     inkscape:window-width="1280"
     inkscape:window-height="731"
     inkscape:window-x="0"
     inkscape:window-y="0"
     inkscape:window-maximized="1"
     inkscape:current-layer="layer1">
    <inkscape:grid
       type="xygrid"
       id="grid242"
       originx="0"
       originy="0" />
  </sodipodi:namedview>
  <g
     inkscape:groupmode="layer"
     id="layer1"
     inkscape:label="Layer 1">
    <g
       id="g11481">
      <g
         id="g3309"
         transform="translate(175,-50.825794)">
        <path
           id="path2544"
           style="fill:#ffffff;fill-opacity:1;stroke-width:19.8608;stroke-linecap:round;stroke-linejoin:round"
           d="m -132,51.78125 a 10.392305,10.392305 0 0 0 -5.19531,1.392578 L -169.80469,72 A 10.392305,10.392305 0 0 0 -175,81 v 37.65234 a 10.392305,10.392305 0 0 0 5.19531,9 l 32.60938,18.82618 a 10.392306,10.392306 0 0 0 10.39062,0 l 32.609378,-18.82618 a 10.392304,10.392304 0 0 0 5.195312,-9 V 81 a 10.392305,10.392305 0 0 0 -5.195312,-9 L -126.80469,53.173828 A 10.392305,10.392305 0 0 0 -132,51.78125 Z m -0.60156,3.599609 a 3.4641406,3.4641406 0 0 1 2.33398,0.41211 L -98.732422,74 a 1.1546875,1.1546875 0 0 1 0,2 l -31.535158,18.207031 a 3.4641408,3.4641408 0 0 1 -3.46484,0 L -165.26758,76 a 1.1546875,1.1546875 0 0 1 0,-2 l 31.53516,-18.207031 a 3.4641406,3.4641406 0 0 1 1.13086,-0.41211 z m -37.44336,27.41211 a 1.154707,1.154707 0 0 1 0.77734,0.136719 l 31.53516,18.207032 a 3.4640822,3.4640822 0 0 1 1.73242,3 v 36.41406 a 1.1547068,1.1547068 0 0 1 -1.73242,1 l -31.53516,-18.20703 a 3.4640828,3.4640828 0 0 1 -1.73242,-3 V 83.929688 a 1.154707,1.154707 0 0 1 0.95508,-1.136719 z m 76.089842,0 A 1.154707,1.154707 0 0 1 -93,83.929688 v 36.414062 a 3.4640828,3.4640828 0 0 1 -1.732422,3 l -31.535158,18.20703 a 1.1547068,1.1547068 0 0 1 -1.73242,-1 v -36.41406 a 3.4640822,3.4640822 0 0 1 1.73242,-3 l 31.535158,-18.207032 a 1.154707,1.154707 0 0 1 0.777344,-0.136719 z" />
        <g
           aria-label="&gt;_"
           id="g2849"
           style="font-weight:bold;font-size:24px;font-family:Heebo;-inkscape-font-specification:'Heebo Bold';text-align:center;text-anchor:middle;white-space:pre;shape-inside:url(#rect2729);fill:#60a6f0;fill-opacity:1;stroke-width:12;stroke-linecap:round;stroke-linejoin:round"
           transform="translate(-60.685547,-150.80203)">
          <path
             d="m -60.654296,264.15184 6.679689,-1.21784 -6.679689,6.56277 v 3.91061 l 10.23047,-10.81843 v -3.34227 l -10.23047,0.99456 z"
             id="path2845"
             style="fill:#60a6f0;fill-opacity:1" />
          <path
             d="m -38.974608,265.84327 v -3.19343 l -10.675781,6.16359 v 3.19344 z"
             id="path2847"
             style="fill:#60a6f0;fill-opacity:1" />
        </g>
        <g
           aria-label="&gt;_"
           id="g2859"
           style="font-weight:bold;font-size:24px;font-family:Heebo;-inkscape-font-specification:'Heebo Bold';text-align:center;text-anchor:middle;white-space:pre;shape-inside:url(#rect2729);fill:#318ae8;fill-opacity:1;stroke-width:12;stroke-linecap:round;stroke-linejoin:round"
           transform="translate(-103.68555,-150.80203)">
          <path
             d="m -60.654298,251.63521 6.679687,6.49511 -6.679687,-1.15018 v 3.9106 l 10.230468,0.99457 v -3.34227 L -60.654298,247.7246 Z"
             id="path2855"
             style="fill:#318ae8;fill-opacity:1" />
          <path
             d="m -38.97461,278.35991 v -3.19344 l -10.675783,-6.1636 v 3.19344 z"
             id="path2857"
             style="fill:#318ae8;fill-opacity:1" />
        </g>
        <g
           aria-label="&gt;_"
           id="g2869"
           style="font-weight:bold;font-size:24px;font-family:Heebo;-inkscape-font-specification:'Heebo Bold';text-align:center;text-anchor:middle;white-space:pre;shape-inside:url(#rect2729);fill:#1879de;fill-opacity:1;stroke-width:12;stroke-linecap:round;stroke-linejoin:round"
           transform="translate(-82.185547,-188.04226)">
          <path
             d="m -65.113282,266.72621 8.964838,-2.53716 -4.335938,5.20963 3.38672,1.9553 5.976569,-8.36246 -2.89453,-1.67114 -14.484379,3.45053 z"
             id="path2865"
             style="fill:#1879de;fill-opacity:1" />
          <path
             d="m -31.128904,261.31362 -2.76563,-1.59672 -10.675782,6.16359 2.76563,1.59672 z"
             id="path2867"
             style="fill:#1879de;fill-opacity:1" />
        </g>
      </g>
      <g
         aria-label="distrobox"
         transform="translate(396.52344,-4.2446815)"
         id="text3745"
         style="font-weight:300;font-size:48px;font-family:Heebo;-inkscape-font-specification:'Heebo Light';letter-spacing:0.8px;white-space:pre;shape-inside:url(#rect3747);fill:#318ae8;stroke-width:12;stroke-linecap:round;stroke-linejoin:round">
        <path
           d="m -288.52344,52.377493 v 0.492188 c 0,7.359375 3.60938,12.84375 9.89063,12.84375 2.76562,0 4.85156,-1.171875 6.39844,-3.140625 l 0.35156,2.671875 h 6.39844 v -36 h -7.125 v 12.867187 c -1.5,-1.710937 -3.46875,-2.695312 -5.97657,-2.695312 -6.35156,0 -9.9375,5.25 -9.9375,12.960937 z m 7.07813,0.492188 v -0.492188 c 0,-4.078125 1.26562,-7.21875 4.66406,-7.21875 2.01563,0 3.375,0.867188 4.17188,2.460938 v 9.867187 c -0.79688,1.546875 -2.15625,2.484375 -4.21875,2.484375 -3.44532,0 -4.61719,-3.140625 -4.61719,-7.101562 z"
           style="font-weight:bold;-inkscape-font-specification:'Heebo Bold';fill:#ffffff"
           id="path4589" />
        <path
           d="m -259.66875,33.346243 c 0,2.109375 1.57031,3.632813 3.96094,3.632813 2.39062,0 3.9375,-1.523438 3.9375,-3.632813 0,-2.109375 -1.54688,-3.632812 -3.9375,-3.632812 -2.39063,0 -3.96094,1.523437 -3.96094,3.632812 z m 7.52344,31.898438 V 39.885306 h -7.10157 v 25.359375 z"
           style="font-weight:bold;-inkscape-font-specification:'Heebo Bold';fill:#ffffff"
           id="path4591" />
        <path
           d="m -232.3375,58.166556 c 0,1.523437 -1.28906,2.554687 -3.72656,2.554687 -2.41407,0 -4.38282,-1.054687 -4.5,-3.609375 h -6.70313 c 0,4.125 3.86719,8.601563 11.03906,8.601563 6.5625,0 10.78125,-3.328125 10.78125,-7.804688 0,-5.132812 -4.21875,-6.960937 -9.63281,-8.015625 -3.39844,-0.632812 -4.59375,-1.453125 -4.59375,-2.882812 0,-1.5 1.3125,-2.625 3.39844,-2.625 2.55469,0 3.67969,1.335937 3.67969,3.234375 h 7.07812 c 0,-4.78125 -4.07812,-8.203125 -10.73437,-8.203125 -6.39844,0 -10.19532,3.703125 -10.19532,7.945312 0,4.40625 3.86719,6.632813 9,7.734375 4.14844,0.890625 5.10938,1.6875 5.10938,3.070313 z"
           style="font-weight:bold;-inkscape-font-specification:'Heebo Bold';fill:#ffffff"
           id="path4593" />
        <path
           d="m -207.74844,45.041556 v -5.15625 h -4.28906 v -6.257813 h -7.07812 v 6.257813 h -3.60938 v 5.15625 h 3.60938 v 13.078125 c 0,5.4375 2.85937,7.59375 7.42968,7.59375 1.6875,0 3,-0.234375 4.17188,-0.632813 l 0.0234,-5.34375 c -0.46875,0.09375 -1.14844,0.164063 -1.96875,0.164063 -1.78125,0 -2.57813,-0.515625 -2.57813,-2.578125 v -12.28125 z"
           style="font-weight:bold;-inkscape-font-specification:'Heebo Bold';fill:#ffffff"
           id="path4595" />
        <path
           d="M -196.26094,65.244681 V 48.814993 c 0.75,-1.617187 2.34375,-2.460937 4.92187,-2.460937 0.72657,0 1.80469,0.117187 2.48438,0.1875 l 0.0937,-6.820313 c -0.49219,-0.1875 -1.40625,-0.304687 -2.10938,-0.304687 -2.46093,0 -4.33593,1.3125 -5.57812,3.492187 l -0.23438,-3.023437 h -6.65625 v 25.359375 z"
           style="font-weight:bold;-inkscape-font-specification:'Heebo Bold';fill:#ffffff"
           id="path4597" />
        <path
           d="m -186.08594,52.330618 v 0.492188 c 0,7.382812 4.33594,12.890625 12.09375,12.890625 7.75782,0 12.04688,-5.507813 12.04688,-12.890625 v -0.492188 c 0,-7.382812 -4.28906,-12.914062 -12.09375,-12.914062 -7.71094,0 -12.04688,5.53125 -12.04688,12.914062 z m 7.10157,0.492188 v -0.492188 c 0,-3.890625 1.28906,-7.21875 4.94531,-7.21875 3.72656,0 5.01562,3.328125 5.01562,7.21875 v 0.492188 c 0,4.007812 -1.3125,7.195312 -4.96875,7.195312 -3.70312,0 -4.99218,-3.1875 -4.99218,-7.195312 z"
           style="font-weight:bold;-inkscape-font-specification:'Heebo Bold';fill:#ffffff"
           id="path4599" />
        <path
           d="m -135.52812,52.822806 v -0.492188 c 0,-7.875 -3.53906,-12.914062 -9.72656,-12.914062 -3.65625,0 -6.23438,1.546875 -7.92188,4.125 V 29.244681 h -2.8125 v 36 h 2.625 l 0.14063,-3.492188 c 1.66406,2.460938 4.3125,3.960938 8.01562,3.960938 6.14063,0 9.67969,-5.320313 9.67969,-12.890625 z m -2.83594,-0.492188 v 0.492188 c 0,5.90625 -2.27344,10.453125 -7.38281,10.453125 -3.89063,0 -6.25781,-2.109375 -7.42969,-4.78125 V 47.010306 c 1.05469,-2.648438 3.16406,-5.15625 7.38281,-5.15625 5.25,0 7.42969,4.570312 7.42969,10.476562 z"
           id="path4601" />
        <path
           d="m -130.08749,52.189993 v 0.773438 c 0,7.382812 4.47656,12.75 11.34375,12.75 6.84375,0 11.29687,-5.367188 11.29687,-12.75 v -0.773438 c 0,-7.382812 -4.45312,-12.773437 -11.34375,-12.773437 -6.82031,0 -11.29687,5.390625 -11.29687,12.773437 z m 2.8125,0.773438 v -0.773438 c 0,-5.460937 3,-10.40625 8.48437,-10.40625 5.50781,0 8.53125,4.945313 8.53125,10.40625 v 0.773438 c 0,5.554687 -3.02344,10.382812 -8.48437,10.382812 -5.53125,0 -8.53125,-4.828125 -8.53125,-10.382812 z"
           id="path4603" />
        <path
           d="m -93.381256,50.150931 -6.820314,-10.265625 h -3.30469 l 8.601566,12.421875 -8.976566,12.9375 h 3.32813 l 7.195311,-10.734375 7.242188,10.734375 h 3.28125 l -8.953125,-12.9375 8.601562,-12.421875 h -3.328125 z"
           id="path4605" />
      </g>
    </g>
  </g>
</svg>
