<svg xmlns="http://www.w3.org/2000/svg" width="160" height="50">
    <path d="M21.5.955c-.912 0-1.808.24-2.598.697L2.598 11.064A5.196 5.196 0 0 0 0 15.565v18.827c0 1.856.99 3.571 2.598 4.5l16.305 9.413a5.196 5.196 0 0 0 5.195 0l16.305-9.413a5.196 5.196 0 0 0 2.597-4.5V15.565c0-1.856-.99-3.572-2.598-4.5L24.098 1.652A5.196 5.196 0 0 0 21.5.955Z" style="fill:#4f433c;fill-opacity:1;stroke-width:9.9304;stroke-linecap:round;stroke-linejoin:round"/>
    <path d="M21.199 2.755a1.73 1.73 0 0 0-.565.206L4.866 12.065a.578.578 0 0 0 0 1l15.768 9.103a1.732 1.732 0 0 0 1.732 0l15.768-9.104a.577.577 0 0 0 0-1L22.366 2.961a1.732 1.732 0 0 0-1.167-.206ZM2.477 16.461A.578.578 0 0 0 2 17.03v18.206c0 .619.33 1.19.866 1.5l15.768 9.104a.578.578 0 0 0 .866-.5V27.132c0-.619-.33-1.19-.866-1.5L2.866 16.53a.578.578 0 0 0-.389-.068Zm38.046 0a.578.578 0 0 0-.389.069l-15.768 9.102a1.732 1.732 0 0 0-.866 1.5V45.34c0 .445.481.723.866.5l15.768-9.103a1.732 1.732 0 0 0 .866-1.5V17.03a.578.578 0 0 0-.477-.569z" style="fill:#f0e2d1;fill-opacity:1;stroke-width:9.9304;stroke-linecap:round;stroke-linejoin:round"/>
    <g style="fill:#70594d;fill-opacity:1">
        <g style="font-weight:700;font-size:24px;font-family:Heebo;-inkscape-font-specification:&quot;Heebo Bold&quot;;text-align:center;text-anchor:middle;white-space:pre;shape-inside:url(#rect2729);fill:#70594d;fill-opacity:1;stroke-width:12;stroke-linecap:round;stroke-linejoin:round" transform="matrix(.5 0 0 .5 57.157 -100.336)">
            <path d="m-60.654 264.152 6.68-1.218-6.68 6.563v3.91l10.23-10.818v-3.342l-10.23.994zm21.679 1.691v-3.193l-10.675 6.163v3.194z" aria-label="&gt;_" style="fill:#70594d;fill-opacity:1"/>
        </g>
        <g style="font-weight:700;font-size:24px;font-family:Heebo;-inkscape-font-specification:&quot;Heebo Bold&quot;;text-align:center;text-anchor:middle;white-space:pre;shape-inside:url(#rect2729);fill:#70594d;fill-opacity:1;stroke-width:12;stroke-linecap:round;stroke-linejoin:round" transform="matrix(.5 0 0 .5 35.657 -100.336)">
            <path d="m-60.654 251.635 6.68 6.495-6.68-1.15v3.91l10.23.995v-3.342l-10.23-10.818zm21.679 26.725v-3.194l-10.675-6.163v3.193z" aria-label="&gt;_" style="fill:#70594d;fill-opacity:1"/>
        </g>
        <g style="font-weight:700;font-size:24px;font-family:Heebo;-inkscape-font-specification:&quot;Heebo Bold&quot;;text-align:center;text-anchor:middle;white-space:pre;shape-inside:url(#rect2729);fill:#70594d;fill-opacity:1;stroke-width:12;stroke-linecap:round;stroke-linejoin:round" transform="matrix(.5 0 0 .5 46.407 -118.956)">
            <path d="m-65.113 266.726 8.965-2.537-4.336 5.21 3.386 1.955 5.977-8.362-2.895-1.672-14.484 3.45zm33.984-5.412-2.766-1.597-10.675 6.163 2.765 1.597z" aria-label="&gt;_" style="fill:#70594d;fill-opacity:1"/>
        </g>
    </g>
    <g aria-label="distrobox" style="font-weight:300;font-size:48px;font-family:Heebo;-inkscape-font-specification:&quot;Heebo Light&quot;;letter-spacing:.8px;white-space:pre;shape-inside:url(#rect3747);fill:#4f433c;fill-opacity:1;stroke-width:12;stroke-linecap:round;stroke-linejoin:round" transform="matrix(.5 0 0 .5 198.262 -1.645)">
        <path d="M-288.523 52.377v.493c0 7.36 3.609 12.843 9.89 12.843 2.766 0 4.852-1.171 6.399-3.14l.351 2.672h6.399v-36h-7.125v12.867c-1.5-1.711-3.47-2.695-5.977-2.695-6.351 0-9.937 5.25-9.937 12.96zm7.078.493v-.493c0-4.078 1.265-7.218 4.664-7.218 2.015 0 3.375.867 4.172 2.46v9.868c-.797 1.547-2.157 2.484-4.22 2.484-3.444 0-4.616-3.14-4.616-7.101zm21.776-19.524c0 2.11 1.57 3.633 3.961 3.633 2.39 0 3.938-1.523 3.938-3.633 0-2.11-1.547-3.633-3.938-3.633-2.39 0-3.96 1.524-3.96 3.633zm7.524 31.899v-25.36h-7.102v25.36zm19.807-7.078c0 1.523-1.289 2.554-3.726 2.554-2.414 0-4.383-1.054-4.5-3.61h-6.703c0 4.126 3.867 8.602 11.039 8.602 6.562 0 10.781-3.328 10.781-7.804 0-5.133-4.219-6.961-9.633-8.016-3.398-.633-4.593-1.453-4.593-2.883 0-1.5 1.312-2.625 3.398-2.625 2.555 0 3.68 1.336 3.68 3.235h7.078c0-4.782-4.078-8.203-10.735-8.203-6.398 0-10.195 3.703-10.195 7.945 0 4.406 3.867 6.633 9 7.734 4.149.89 5.11 1.688 5.11 3.07zm24.59-13.125v-5.157h-4.29v-6.258h-7.078v6.258h-3.609v5.157h3.61V58.12c0 5.437 2.859 7.593 7.43 7.593 1.687 0 3-.234 4.17-.632l.024-5.344c-.468.094-1.148.164-1.968.164-1.782 0-2.579-.516-2.579-2.578V45.042Zm11.488 20.203v-16.43c.75-1.617 2.343-2.46 4.92-2.46.728 0 1.806.116 2.485.187l.094-6.82c-.492-.188-1.406-.305-2.11-.305-2.46 0-4.335 1.312-5.577 3.492l-.235-3.024h-6.656v25.36zm10.174-12.915v.493c0 7.383 4.336 12.89 12.094 12.89 7.758 0 12.047-5.507 12.047-12.89v-.492c0-7.383-4.29-12.914-12.094-12.914-7.711 0-12.047 5.53-12.047 12.914zm7.102.493v-.492c0-3.891 1.289-7.22 4.945-7.22 3.727 0 5.016 3.329 5.016 7.22v.492c0 4.008-1.313 7.195-4.97 7.195-3.702 0-4.991-3.187-4.991-7.195z" style="font-weight:700;-inkscape-font-specification:&quot;Heebo Bold&quot;;fill:#4f433c;fill-opacity:1"/>
        <path d="M-135.528 52.823v-.492c0-7.875-3.54-12.914-9.727-12.914-3.656 0-6.234 1.546-7.922 4.125V29.245h-2.812v36h2.625l.14-3.493c1.665 2.461 4.313 3.961 8.016 3.961 6.14 0 9.68-5.32 9.68-12.89zm-2.836-.492v.492c0 5.906-2.273 10.453-7.383 10.453-3.89 0-6.258-2.11-7.43-4.781V47.01c1.055-2.648 3.164-5.156 7.383-5.156 5.25 0 7.43 4.57 7.43 10.477zm8.277-.141v.773c0 7.383 4.476 12.75 11.343 12.75 6.844 0 11.297-5.367 11.297-12.75v-.773c0-7.383-4.453-12.773-11.344-12.773-6.82 0-11.296 5.39-11.296 12.773zm2.812.773v-.773c0-5.46 3-10.406 8.484-10.406 5.508 0 8.532 4.945 8.532 10.406v.773c0 5.555-3.024 10.383-8.485 10.383-5.531 0-8.531-4.828-8.531-10.383zm33.894-2.813-6.82-10.265h-3.305l8.601 12.422-8.976 12.938h3.328l7.195-10.735 7.242 10.735h3.282l-8.954-12.938 8.602-12.422h-3.328z" style="fill:#4f433c;fill-opacity:1"/>
    </g>
</svg>
