<svg xmlns="http://www.w3.org/2000/svg" xml:space="preserve" width="300" height="200">
    <defs>
        <path id="a" d="M-68 248h35v35h-35z"/>
    </defs>
    <path d="M-132 51.781a10.392 10.392 0 0 0-5.195 1.393L-169.805 72A10.392 10.392 0 0 0-175 81v37.652a10.392 10.392 0 0 0 5.195 9l32.61 18.827a10.392 10.392 0 0 0 10.39 0l32.61-18.827a10.392 10.392 0 0 0 5.195-9V81a10.392 10.392 0 0 0-5.195-9l-32.61-18.826A10.392 10.392 0 0 0-132 51.78Zm-.602 3.6a3.464 3.464 0 0 1 2.334.412L-98.732 74a1.155 1.155 0 0 1 0 2l-31.536 18.207a3.464 3.464 0 0 1-3.464 0L-165.268 76a1.155 1.155 0 0 1 0-2l31.536-18.207a3.464 3.464 0 0 1 1.13-.412zm-37.443 27.412a1.155 1.155 0 0 1 .777.137l31.536 18.207a3.464 3.464 0 0 1 1.732 3v36.414a1.155 1.155 0 0 1-1.732 1l-31.536-18.207a3.464 3.464 0 0 1-1.732-3V83.93a1.155 1.155 0 0 1 .955-1.137zm76.09 0A1.155 1.155 0 0 1-93 83.93v36.414a3.464 3.464 0 0 1-1.732 3l-31.536 18.207a1.155 1.155 0 0 1-1.732-1v-36.414a3.464 3.464 0 0 1 1.732-3l31.536-18.207a1.155 1.155 0 0 1 .777-.137z" style="fill:#fff;fill-opacity:1;stroke-width:19.8608;stroke-linecap:round;stroke-linejoin:round" transform="translate(219 .174)"/>
    <g style="font-weight:700;font-size:24px;font-family:Heebo;-inkscape-font-specification:&quot;Heebo Bold&quot;;text-align:center;text-anchor:middle;white-space:pre;shape-inside:url(#a);fill:#60a6f0;fill-opacity:1;stroke-width:12;stroke-linecap:round;stroke-linejoin:round" transform="translate(158.314 -150.628)">
        <path d="m-60.654 264.152 6.68-1.218-6.68 6.563v3.91l10.23-10.818v-3.342l-10.23.994zm21.679 1.691v-3.193l-10.675 6.163v3.194z" aria-label="&gt;_" style="fill:#60a6f0;fill-opacity:1"/>
    </g>
    <g style="font-weight:700;font-size:24px;font-family:Heebo;-inkscape-font-specification:&quot;Heebo Bold&quot;;text-align:center;text-anchor:middle;white-space:pre;shape-inside:url(#a);fill:#318ae8;fill-opacity:1;stroke-width:12;stroke-linecap:round;stroke-linejoin:round" transform="translate(115.314 -150.628)">
        <path d="m-60.654 251.635 6.68 6.495-6.68-1.15v3.91l10.23.995v-3.342l-10.23-10.818Zm21.679 26.725v-3.194l-10.675-6.163v3.193z" aria-label="&gt;_" style="fill:#318ae8;fill-opacity:1"/>
    </g>
    <g style="font-weight:700;font-size:24px;font-family:Heebo;-inkscape-font-specification:&quot;Heebo Bold&quot;;text-align:center;text-anchor:middle;white-space:pre;shape-inside:url(#a);fill:#1879de;fill-opacity:1;stroke-width:12;stroke-linecap:round;stroke-linejoin:round" transform="translate(136.814 -187.868)">
        <path d="m-65.113 266.726 8.965-2.537-4.336 5.21 3.386 1.955 5.977-8.362-2.895-1.672-14.484 3.45zm33.984-5.412-2.766-1.597-10.675 6.163 2.765 1.597z" aria-label="&gt;_" style="fill:#1879de;fill-opacity:1"/>
    </g>
    <g aria-label="distrobox" style="font-weight:700;font-size:24px;line-height:1.25;font-family:Heebo;-inkscape-font-specification:&quot;Heebo Bold&quot;;letter-spacing:.4px;fill:#fff">
        <path d="M176.74 99.566v.246c0 3.68 1.804 6.422 4.945 6.422 1.383 0 2.426-.586 3.2-1.57l.175 1.336h3.2V88h-3.563v6.434c-.75-.856-1.735-1.348-2.989-1.348-3.175 0-4.968 2.625-4.968 6.48zm3.539.246v-.246c0-2.039.633-3.609 2.332-3.609 1.008 0 1.687.434 2.086 1.23v4.934c-.399.774-1.078 1.242-2.11 1.242-1.722 0-2.308-1.57-2.308-3.55zm10.888-9.762c0 1.055.785 1.817 1.98 1.817 1.196 0 1.97-.762 1.97-1.816 0-1.055-.774-1.817-1.97-1.817-1.195 0-1.98.762-1.98 1.817zm3.762 15.95V93.32h-3.551V106Zm9.904-3.54c0 .763-.645 1.278-1.864 1.278-1.207 0-2.191-.527-2.25-1.804h-3.351c0 2.062 1.933 4.3 5.52 4.3 3.28 0 5.39-1.664 5.39-3.902 0-2.566-2.11-3.48-4.816-4.008-1.7-.316-2.297-.726-2.297-1.441 0-.75.656-1.313 1.699-1.313 1.277 0 1.84.668 1.84 1.618h3.539c0-2.391-2.04-4.102-5.367-4.102-3.2 0-5.098 1.852-5.098 3.973 0 2.203 1.934 3.316 4.5 3.867 2.074.445 2.555.844 2.555 1.535zm12.294-6.562V93.32h-2.144v-3.129h-3.54v3.13h-1.804v2.577h1.805v6.54c0 2.718 1.43 3.796 3.714 3.796.844 0 1.5-.117 2.086-.316l.012-2.672a5.225 5.225 0 0 1-.984.082c-.891 0-1.29-.258-1.29-1.289v-6.14zM222.87 106v-8.215c.376-.808 1.173-1.23 2.462-1.23.363 0 .902.058 1.242.093l.047-3.41c-.246-.093-.703-.152-1.055-.152-1.23 0-2.168.656-2.789 1.746l-.117-1.512h-3.328V106Zm5.088-6.457v.246c0 3.691 2.168 6.445 6.047 6.445 3.88 0 6.024-2.754 6.024-6.445v-.246c0-3.691-2.145-6.457-6.047-6.457-3.856 0-6.024 2.766-6.024 6.457zm3.551.246v-.246c0-1.945.645-3.61 2.473-3.61 1.863 0 2.508 1.665 2.508 3.61v.246c0 2.004-.657 3.598-2.485 3.598-1.851 0-2.496-1.594-2.496-3.598z" style="fill:#fff" transform="translate(-24.74)"/>
        <path d="M253.237 99.79v-.247c0-3.938-1.77-6.457-4.863-6.457-1.828 0-3.117.773-3.96 2.062V88h-1.407v18h1.312l.07-1.746c.833 1.23 2.157 1.98 4.008 1.98 3.07 0 4.84-2.66 4.84-6.445zm-1.418-.247v.246c0 2.953-1.136 5.227-3.691 5.227-1.945 0-3.129-1.055-3.715-2.391v-5.742c.527-1.324 1.582-2.578 3.691-2.578 2.625 0 3.715 2.285 3.715 5.238zm4.139-.07v.386c0 3.692 2.238 6.375 5.671 6.375 3.422 0 5.649-2.683 5.649-6.375v-.386c0-3.692-2.227-6.387-5.672-6.387-3.41 0-5.648 2.695-5.648 6.387zm1.406.386v-.386c0-2.73 1.5-5.203 4.242-5.203 2.754 0 4.266 2.472 4.266 5.203v.386c0 2.778-1.512 5.192-4.243 5.192-2.765 0-4.265-2.414-4.265-5.192zm16.946-1.406-3.41-5.133h-1.652l4.301 6.211-4.488 6.469h1.664l3.597-5.367 3.622 5.367h1.64l-4.476-6.469 4.3-6.21h-1.664z" style="font-weight:300;-inkscape-font-specification:&quot;Heebo Light&quot;;fill:#fff" transform="translate(-24.74)"/>
    </g>
</svg>
